<svg id="Layer_1" data-name="Layer 1" xmlns="http://www.w3.org/2000/svg" viewBox="0 0 400 400"><defs><style>.cls-1{fill:none;}.cls-2{fill:#545350;}.cls-3{fill:#9cbe3c;}</style></defs><title>ancestry-logo</title><rect class="cls-1" width="400" height="400"/><path class="cls-2" d="M121.72,235a7.88,7.88,0,0,1-7.69-5.89A11.07,11.07,0,0,1,104.4,235a9.13,9.13,0,0,1-9.28-8.92c0-6.95,6.6-12,19.12-12.13v-1.8c0.18-5-2.68-8-7.69-8-3.56,0-7.34,2.33-9.8,5.36-0.18.18-1.23-.88-1.23-1.06,3.21-6.42,9.1-10,15.17-10,6.95,0,12,5,11.78,13.4l-0.53,13.93c0,3.21,1.45,4.66,3,4.66,1.8,0,3-1.45,3.74-3.39a1.52,1.52,0,0,1,1.06.53C129.59,232.14,126,235,121.72,235Zm-7.51-19.08c-4.3.53-6.95,1.8-8.75,3.56a7,7,0,0,0-2.15,5,5.28,5.28,0,0,0,5,5.52h0.16a6,6,0,0,0,4.48-1.8,2.72,2.72,0,0,0,.71-1.8Z" transform="translate(-1)"/><path class="cls-2" d="M166.2,233.77h-9.45a3.12,3.12,0,0,1,0-1.8c3.91-.53,4.48-0.88,4.48-8.57V212.71c0-4.83-2.86-8.22-6.95-8.22a8.57,8.57,0,0,0-6.77,3.21,9,9,0,0,0-1.45,5.54v10.19c0,7.69.88,8,4.83,8.57a6.15,6.15,0,0,1,0,1.8h-18.2a6.24,6.24,0,0,1-.18-1.8c4.3-.71,4.83-0.88,4.83-8.57v-13c0-7.86-.88-8.22-5.54-8.92-0.35,0-.18-1.8,0-1.8H145v7.86h0.18c3-5.71,7.69-9.1,13.4-9.1,6.42,0,11.43,5,11.43,13.23v11.6c0,7.69.71,8,5,8.57,0.35,0,.18,1.8,0,1.8C172.61,233.77,168.49,233.77,166.2,233.77Z" transform="translate(-1)"/><path class="cls-2" d="M194.94,235c-10.72,0-17.67-8.39-17.67-18,0-10.37,6.95-18.59,18.41-18.59,5.36,0,8,1.8,9.63,1.8a2.06,2.06,0,0,0,1.8-1.45,4.44,4.44,0,0,1,2.15,0v12.87a4.44,4.44,0,0,1-2.15,0c-2.86-5.89-6.77-10.9-11.43-10.9-5.71,0-9.1,6.07-9.1,14.46,0,8.92,4.66,14.81,11.07,14.81a14.1,14.1,0,0,0,11.07-6.42c0.18-.35,1.62.35,1.62,0.71A17.06,17.06,0,0,1,194.94,235Z" transform="translate(-1)"/><path class="cls-2" d="M224,216.27c0,7.69,4.3,13.58,11.6,13.58,4.3,0,8.57-2.86,10.9-6.42a1.88,1.88,0,0,1,1.45.71c-2,6.07-8.39,10.72-15.55,10.72-11.25,0-17.85-8.22-17.85-18s6.95-18.59,18.76-18.59c8.92,0,14.81,5.89,15.34,13.93v2.47h-24.3A3,3,0,0,0,224,216.27Zm14.28-4.13v-2.5c0-5.54-2.68-8.75-6.07-8.75-4.3,0-7.51,4.66-8.22,11.25h14.29Z" transform="translate(-1)"/><path class="cls-2" d="M266.53,234.83c-5.54,0-10.37-1.45-12-2.5a52,52,0,0,1-.71-9.45c0-.18,2.15-0.35,2.15,0,2.86,6.24,6.95,9.8,11.43,9.8,3.74,0,6.42-2,6.42-5,0-3.56-4.3-5.18-8.57-7.16-5.18-1.9-11.07-4.58-11.07-11.22,0-5.18,4.48-10.55,12.87-10.55,3.56,0,5.89,1.45,7.51,1.45a2.49,2.49,0,0,0,2-1.45,4.44,4.44,0,0,1,2.15,0v11.78a4.44,4.44,0,0,1-2.15,0c-2.86-5.36-6.24-9.1-10.37-9.1-3.74,0-5.54,2.5-5.54,4.48,0,3.56,4.09,5,8.39,6.77,5.18,2.15,11.25,4.83,11.25,11.6C280.11,230.2,274.75,234.83,266.53,234.83Z" transform="translate(-1)"/><path class="cls-2" d="M284.2,203.4c-0.53,0-.71-1.45-0.18-1.8,3.74-3.39,10-9.1,13.4-12.66,0.18-.18,1.45,0,1.45.35v10.55H311c0.35,0,.35,3.39,0,3.39H298.87V223c0,4.48,2.68,6.42,5.54,6.42,2.15,0,4.48-1.8,5.54-3.91a2.77,2.77,0,0,1,1.45.71,12.06,12.06,0,0,1-11.25,8.57c-5.54,0-10-3.56-10-10.55V203.4h-6Z" transform="translate(-1)"/><path class="cls-2" d="M340.46,209.11c-1.06,0-3.74-3.21-5.71-3.21a4.29,4.29,0,0,0-2.86,1.45c-1.45,1.45-2.68,4.83-2.68,7.69v8.57c0,7.86,1.23,8,5.36,8.57a6.15,6.15,0,0,1,0,1.8h-18.9a3.12,3.12,0,0,1,0-1.8c4.3-.71,4.83-0.88,4.83-8.57V210.38c0-7.69-.88-8.22-5.54-8.92-0.35,0-.18-1.8,0-1.8h13.75v8.92h0.35c0.35-1.06,1.06-2.33,1.62-3.56,2.5-4.09,5.54-6.6,8.75-6.6,3,0,5.54,2.33,5.54,4.83C345.11,206.08,341.55,209.11,340.46,209.11Z" transform="translate(-1)"/><path class="cls-2" d="M382.25,203.22c-1.45,1.45-2.5,4.3-4.83,10.55l-11.6,29.84c-4.09,10.55-7.86,12.66-12.87,12.66-2.86,0-6.07-1.45-6.07-2.33-0.18-1.45,1.8-6.6,2.86-6.6,0.35,0,4.66,2,6.77,2,3,0,5-2,6.6-6.24l2.15-5.71c-0.71-2.86-9.28-21.62-10.37-24.12-2.15-5-3.56-8.92-5-10.37-0.88-.88-1.8-1.23-4.3-1.62a3.12,3.12,0,0,1,0-1.8c2.33,0,7.16.18,9.8,0.18s7.34-.18,9.63-0.18a3.12,3.12,0,0,1,0,1.8c-5.36.71-4.83,2.5-2,9.63L369.27,226l5-13c1.8-4.48,2.68-7.16,2.68-8.75,0-2-1.23-2.68-5-2.86a3.75,3.75,0,0,1,0-2c2.5,0,5.71.18,7.86,0.18,1.62,0,3.21-.18,6.24-0.18,0.18,0,.35,2,0,2A6.28,6.28,0,0,0,382.25,203.22Z" transform="translate(-1)"/><path class="cls-2" d="M391.7,200.19h-1.45v-0.71H394v0.71h-1.45v3.74h-0.88v-3.74h0Zm3.07-.71h1.06l0.71,1.62,0.35,1.23h0l0.35-1.23,0.71-1.62h1v4.66h-0.88v-3.6h0l-1.06,2.86h-0.71l-1.06-2.86h0l0.18,1.62v2h-0.88V199.5h0.18v0Z" transform="translate(-1)"/><path class="cls-3" d="M43.5,219.31c-0.18.18-7.16,9.45-23.56,6.95C6.71,224.14,1.88,217,1,216.8c1.06-1.45,11.07-9.45,22.68-9.28A35.34,35.34,0,0,1,43.5,214.3h7.34c-5.89-1.8-13-5-16.26-12.13-2.86-6.63-2.33-10.55-3.56-16.08,0,0,13.23-1.06,23.38,5.54,9.28,6.07,14.46,22.15,14.64,22.68h5.71l-1.23-28.57,7.16,0.18c-1.23,7.51.35,61.08,0,61.08-0.71.18-6.77,0.53-7.34-.88,0,0,1.45-26.24,1.62-26.77H69.42c0,0.35-.53,15.17-11.78,23s-27.51,5.54-27.51,5.54c2-3,0-6.24,5.71-15A38.94,38.94,0,0,1,51,219.34C50.66,219.31,43.85,219.31,43.5,219.31ZM13,215.75c1.23,0.18,5.54,5.71,13.23,6.42,8.39,0.88,11.25-3.39,11.43-3.39,0-.53-6.77-7.86-14.28-7.86C18.14,210.91,13,215.75,13,215.75Zm49.13,4.8c-2,0-10,.71-15.34,7.34-5.54,6.95-5.36,12.48-6.6,13.75,1.06,0.35,12.31,1.45,17.14-5.89a29.27,29.27,0,0,0,4.75-15.21h0Zm-7.69-23C48.2,190.78,42,191.84,40.86,192c0.53,0.18,1.06,12,7.69,18.2,4.44,4.13,13.58,2.72,13.58,2.72a35,35,0,0,0-7.73-15.42Z" transform="translate(-1)"/></svg>