<svg id="Layer_1" data-name="Layer 1" xmlns="http://www.w3.org/2000/svg" viewBox="0 0 400.01 400"><defs><style>.cls-1{fill:none;}.cls-2{fill:#0a4976;}.cls-3{fill:#faa61b;}.cls-4{fill:#dbe126;}.cls-5{fill:#9ccb3c;}.cls-6{fill:#00864a;}</style></defs><title>myheritage-logo</title><rect class="cls-1" width="400" height="400"/><g id="g3011"><g id="g3013"><g id="g3015"><path id="path3017" class="cls-2" d="M235.88,214.79H225.35v-0.13a9,9,0,0,1,1.43-5.49,4.72,4.72,0,0,1,4-1.9,4.54,4.54,0,0,1,4,2,6,6,0,0,1,.85,2.06,15.57,15.57,0,0,1,.24,3.06v0.4h0Zm8.32-4.49a14.47,14.47,0,0,0-3.5-6,11.19,11.19,0,0,0-4.35-2.66,17.1,17.1,0,0,0-5.71-.93,15.46,15.46,0,0,0-6.11,1.13,14.25,14.25,0,0,0-4.82,3.46,15.3,15.3,0,0,0-3.33,5.73,25.87,25.87,0,0,0-1,7.79,21.61,21.61,0,0,0,1.16,7.26,15.72,15.72,0,0,0,3.29,5.56,14.65,14.65,0,0,0,5.2,3.56,17.62,17.62,0,0,0,6.79,1.27,20.32,20.32,0,0,0,12.33-4.13,0.9,0.9,0,0,0,.25-1.4l-2.31-3.49a1,1,0,0,0-1.6-.34,13.47,13.47,0,0,1-7.92,2.7,6.9,6.9,0,0,1-5.44-2.13,8.9,8.9,0,0,1-1.9-6.13v-0.27h18.72c1.61,0,1.39-2.06,1.39-2.06a30.31,30.31,0,0,0-1.12-9M380,214.57a9,9,0,0,1,1.43-5.49,4.72,4.72,0,0,1,4-1.9,4.54,4.54,0,0,1,4,2,6,6,0,0,1,.85,2.06,15.63,15.63,0,0,1,.24,3.06v0.4H380v-0.13h0Zm18.58,6.66c1.61,0,1.39-2.06,1.39-2.06a30.33,30.33,0,0,0-1.12-9,14.48,14.48,0,0,0-3.5-6,11.19,11.19,0,0,0-4.35-2.66,17.09,17.09,0,0,0-5.71-.93,15.45,15.45,0,0,0-6.11,1.13,14.24,14.24,0,0,0-4.82,3.46,15.31,15.31,0,0,0-3.33,5.73,25.89,25.89,0,0,0-1,7.79,21.61,21.61,0,0,0,1.16,7.26,15.72,15.72,0,0,0,3.29,5.56,14.65,14.65,0,0,0,5.2,3.56,17.61,17.61,0,0,0,6.79,1.27,20.32,20.32,0,0,0,12.33-4.13,0.9,0.9,0,0,0,.25-1.4l-2.31-3.49a1,1,0,0,0-1.6-.34,13.46,13.46,0,0,1-7.92,2.7,6.9,6.9,0,0,1-5.44-2.13,8.9,8.9,0,0,1-1.9-6.13v-0.27h18.72Zm-47.6-4a6.24,6.24,0,0,1-3.87-1.13,4.38,4.38,0,0,1-1.49-3.73,4.85,4.85,0,0,1,1.43-3.73,5.66,5.66,0,0,1,4-1.33,5.78,5.78,0,0,1,4,1.33,4.79,4.79,0,0,1,1.46,3.73q0,4.86-5.57,4.86m15.29-9.59a9.09,9.09,0,0,0,3.4-.6,9.37,9.37,0,0,0,2.13-1.23,1.09,1.09,0,0,0,.21-1.67l-2.25-3.27c-0.51-.85-1-1.11-1.87-0.51a11.63,11.63,0,0,1-2.44,1.36,9.86,9.86,0,0,1-3.77.77,9.42,9.42,0,0,1-1.87-.2q-1-.2-2.41-0.53-1.9-.46-3.33-0.67a21.09,21.09,0,0,0-2.92-.2,20.61,20.61,0,0,0-6,.83,14,14,0,0,0-4.62,2.33,10.35,10.35,0,0,0-4,8.36q0,7.59,7.47,9.45a15.35,15.35,0,0,0-3.43,1.2,6.68,6.68,0,0,0-1.9,1.4,3.72,3.72,0,0,0-.85,1.53,6.45,6.45,0,0,0-.2,1.6,5.28,5.28,0,0,0,.71,2.86,3.86,3.86,0,0,0,1.94,1.6q2.38,1,8.36,1.07l3.87,0.07a11.74,11.74,0,0,1,4.55.9,3.15,3.15,0,0,1,1.83,3.16,3.42,3.42,0,0,1-.61,2,5,5,0,0,1-1.63,1.5,6.91,6.91,0,0,1-2.51.9,20,20,0,0,1-3.19.23,9.07,9.07,0,0,1-4.86-1.07,3.48,3.48,0,0,1-1.67-3.13,7.76,7.76,0,0,1,.07-1.16c0-.29.16-1.14-0.67-1h-7.41a10.58,10.58,0,0,0-.54,1.3,6.75,6.75,0,0,0-.27,2.16,8,8,0,0,0,2.85,6.06,12.7,12.7,0,0,0,5.91,2.9,34.3,34.3,0,0,0,7.27.77,29.37,29.37,0,0,0,7.75-1,12.74,12.74,0,0,0,6-3.4,9.88,9.88,0,0,0,2.79-7.06,9.35,9.35,0,0,0-3-7.26,10.35,10.35,0,0,0-4.21-2.33,25.9,25.9,0,0,0-6.32-.73l-4.89-.07q-1.49,0-1.49-.8a1.73,1.73,0,0,1,.92-1.37,18,18,0,0,1,2.68-1.43,7.28,7.28,0,0,0,.75.07h0.61a16.43,16.43,0,0,0,5.13-.77,13.49,13.49,0,0,0,4.08-2.1,9.37,9.37,0,0,0,2.68-3.2,8.81,8.81,0,0,0,1-4.06,8.54,8.54,0,0,0-.51-3.06,8.73,8.73,0,0,0-1.53-2.53q0.41,0.07,1,.13a12.86,12.86,0,0,0,1.32.07m-43,20.24a7.4,7.4,0,0,1-2.24,1.73,5.66,5.66,0,0,1-2.51.6,3.72,3.72,0,0,1-2.89-1.23,4.61,4.61,0,0,1-1.12-3.23q0-3.06,1.87-4.13t6.62-1.06h0.3Zm10.5,2.23a5.8,5.8,0,0,1-1-1.63,6.28,6.28,0,0,1-.41-1.9q-0.07-1-.07-2.43l0.2-11.45v-2.33a10.73,10.73,0,0,0-.1-1.6c-0.07-.44-0.14-0.83-0.2-1.16a6.54,6.54,0,0,0-.31-1,7.86,7.86,0,0,0-3.91-4.39,15.5,15.5,0,0,0-7.3-1.53,23.21,23.21,0,0,0-4.65.47,27.14,27.14,0,0,0-4.86,1.53q-1.83.73-3.06,1.33-0.71.35-1.47,0.79a1.19,1.19,0,0,0-.56,1.59l0,0.09,2.58,4.26a1.23,1.23,0,0,0,1.66.52l0.19-.12a28.57,28.57,0,0,1,4.2-2.13,12.75,12.75,0,0,1,4.69-1q2.51,0,3.29,1.1a7.24,7.24,0,0,1,.78,4v1.4a8.69,8.69,0,0,0-1-.07h-1q-8.36,0-12.53,2.83t-4.18,8.89q0,5.13,3.06,7.89t8.9,2.76a11.93,11.93,0,0,0,7-1.86,6.87,6.87,0,0,0,1-.8q0.51-.47,1-1a7.4,7.4,0,0,0,2,2.4,14,14,0,0,0,1.64,1.12,1.53,1.53,0,0,0,2.14-.33l0.06-.09c0.94-1,2.34-2.58,3.13-3.59a1,1,0,0,0,0-1.41l-0.08-.08a7.87,7.87,0,0,1-1-1m-31,.05a0.81,0.81,0,0,0-1-.53l-0.09,0-1,.25a5.84,5.84,0,0,1-1.33.17q-2.38,0-3.16-1.1t-0.86-4.52V207.6h5.84l1.85-4.91c0.33-.94-0.24-1.21-0.75-1.21h-6.94q0-2.6.14-5.29,0.08-1.65.22-3.16c0.17-1.65-1-1.53-1.73-1.4l-7.32,1.79a30.81,30.81,0,0,0-.31,3.73v4.33H283v6.13h3.47v20.51a9.74,9.74,0,0,0,.07,1.3,4.6,4.6,0,0,0,.17,1,9.88,9.88,0,0,0,.34,1,6.72,6.72,0,0,0,3.36,3.63,12.56,12.56,0,0,0,6,1.37,19.43,19.43,0,0,0,6.77-1.28,0.75,0.75,0,0,0,.5-0.91l-0.85-3.92m-24.36-29.5-7.37,1.13c-0.84.15-.89,0.4-0.89,0.94v31.76a0.83,0.83,0,0,0,1,.93h7.26c0.64,0,.8-0.17.8-0.87V201.54c0-.82-0.29-0.83-0.85-0.74m-3.56-14.25a5.62,5.62,0,0,0-4,1.6,5.23,5.23,0,0,0-1.66,3.93,5.29,5.29,0,0,0,1.63,3.93,5.42,5.42,0,0,0,3.94,1.6,5.51,5.51,0,0,0,4-1.6,5.29,5.29,0,0,0,1.63-3.93,5.45,5.45,0,0,0-5.37-5.53h-0.13m-8,14.25a8.53,8.53,0,0,0-1.66-.13,7.73,7.73,0,0,0-4.62,1.46,17,17,0,0,0-3.53,3.4,11.32,11.32,0,0,0-1.43-4.86l-8.19,2.13a20.59,20.59,0,0,1,.92,4,41.85,41.85,0,0,1,.37,6v21.78a0.91,0.91,0,0,0,.81,1h7.32a0.85,0.85,0,0,0,1-1V211.46a7.34,7.34,0,0,1,5.57-2.86,6.27,6.27,0,0,1,1.39.11c0.84,0.13,1.37.26,1.66-.72l1.67-5.21c0.4-1.28-.22-1.7-1.3-2m-55.31-11.49H203.8c-0.91,0-1,.27-1,1.06v16.92H189.17V190.35c0-1-.46-1.09-1.37-1.06h-6.94c-1,0-1.14.33-1.14,1.09v44.12a0.86,0.86,0,0,0,.88,1.06h7.54a0.87,0.87,0,0,0,1-1V214.88h13.59v19.6a1,1,0,0,0,1,1h7.72a0.85,0.85,0,0,0,.92-1V190.3c0-.84-0.29-1-0.85-1m-34.86,12.17h-7.49a0.94,0.94,0,0,0-1.2.86l-5,15.39q-0.41,1.2-.78,2.53t-0.58,2.2c-0.09.4-.2,0.91-0.34,1.53s-0.26,1.21-.37,1.76-0.2,1-.27,1.46-0.1.66-.1,0.7l-1.79-7-5.76-19a1.12,1.12,0,0,0-1.34-.84h0l-7.17.84c-0.86.1-1,.54-0.76,1.12l11.14,32.57h2.31q-0.34.73-.54,1.27t-0.41,1a8.94,8.94,0,0,1-.44.83l-0.58.93a9.84,9.84,0,0,1-2.58,2.8,10.63,10.63,0,0,1-2.58,1.3q-1,.36-2,0.65a0.87,0.87,0,0,0-.53,1.36l2.14,4a1.25,1.25,0,0,0,1.48.62,22.42,22.42,0,0,0,3.46-.93,15.87,15.87,0,0,0,3.91-2,9.92,9.92,0,0,0,1.77-1.6,15.72,15.72,0,0,0,1.6-2.23,29.29,29.29,0,0,0,1.6-3.13q0.82-1.83,1.7-4.29l12.31-33.65c0.34-1-.19-1-0.79-1m-36.49-11.17a1,1,0,0,0-1.23-1H129a1.17,1.17,0,0,0-1.3,1l-6.1,21.93q-1.09,4.06-1.7,7.52-0.14-.86-0.31-1.67l-0.34-1.63q-0.17-.83-0.41-1.8t-0.58-2.23l-5.91-22.17a1.29,1.29,0,0,0-1.53-1h-10a0.94,0.94,0,0,0-1,1.07L95.61,234.5c-0.06.77,0.38,1,1.14,1h6.94a1.07,1.07,0,0,0,1.33-1l1.56-23.18q0.14-2.13.2-4.19t0.14-3.86q0.34,1.86.88,4t1,3.93l6.45,23.31a1.15,1.15,0,0,0,1.26,1h5.94c1,0,1.19-.15,1.46-1l7.19-24.34q0.61-2.13,1-3.63t0.78-3.5q0,1.86.1,3.7t0.24,4c0.14,2.16,1.46,19.59,1.71,23.88,0,0.77.44,0.82,1,.82h7.46a0.77,0.77,0,0,0,.82-1c-0.68-6.07-3.47-38.15-4-44.27" transform="translate(0 -0.65)"/></g></g></g><g id="g3019"><g id="g3021"><g id="g3027"><g id="g3035"><g id="g3037"><g id="g3039"><path id="path3041" class="cls-3" d="M50.69,181.88C67.6,182.88,81,197.88,81,215S67.6,247.15,50.69,248.14c24.5,2.16,39.65-15,39.65-33.13s-15.09-35.27-39.65-33.13" transform="translate(0 -0.65)"/></g></g></g></g></g></g><g id="g3043"><g id="g3045"><g id="g3051"><g id="g3059"><g id="g3061"><g id="g3063"><path id="path3065" class="cls-4" d="M11.33,215c0-17.15,13.41-32.1,30.32-33.1C17.45,179.62,2,196.88,2,215s15.77,35.7,39.65,33.13c-16.91-1-30.32-16-30.32-33.13" transform="translate(0 -0.65)"/></g></g></g></g></g></g><g id="g3067"><g id="g3069"><g id="g3075"><g id="g3083"><g id="g3085"><g id="g3087"><path id="path3089" class="cls-5" d="M46.17,182.76a32.19,32.19,0,0,0-6.62,63.71c6.9,1.41,5.37-24.4,1.59-26.59l2-.4,1.2-.21c0,0.93.91,3.78,2,4a43.17,43.17,0,0,1,4.34-5.89c0.67,0.31.51,0.89,0.81,1.56-0.5.92-2.25,4.77-2.71,5.85-1.54,3.6-2.15,21.86,2.84,21.86,12.94-2,26.91-14.44,26.73-31.75a32.34,32.34,0,0,0-32.23-32.23" transform="translate(0 -0.65)"/></g></g></g></g></g></g><g id="g2993"><g id="g3091"><g id="g3093"><g id="g3099"><g id="g3107"><g id="g3109"><g id="g3111"><path id="path3113" class="cls-6" d="M63.82,211c0.15-4.23-5.06-10-7-9.82-0.46-4.46-4.88-6.63-6.21-6.18-1,.36-0.91-1.76-4-1.62a14.47,14.47,0,0,0-3,.47c-2,0-2,1-2.81.92-3.48-.24-2.21,1.26-4,1.85,0,0-2.59,1.05-2.5,2.91-1.71.57-3.47,3.24-3.77,4.88-2,1.44-4.3,6.6-2.91,7.49,0.51,0.32-.87,2.39-1.24,3.34,0,0.07-.94,1.49,1.9,3.29,0.66,0.42-1.68,1.43-1.54,2.78,0,0.16.15,2.9,2.66,3.53l0.74,0.39a4.49,4.49,0,0,0,3.26,2.69c2.43,0.46,3.32-.56,4-0.56s1,1,2,.66c0.61-.22,1.56-1.37,2.56-1.33l2,0.11c-0.57-3.5-1.5-6.24-2.62-6.88l2-.4,1.2-.21c0,0.93.91,3.78,2,4a43.12,43.12,0,0,1,4.34-5.89c0.67,0.31.51,0.89,0.81,1.56-0.5.92-2.25,4.77-2.71,5.85a11.42,11.42,0,0,0-.6,2.26c0.59,0.05,1.06.11,1.33,0.15a6.53,6.53,0,0,0,4.74-1.63c0.51,0.39.19,2,1.92,2.31s2.72-.83,4.13-1.84c0.08-.06,2.09-1.79,2.41-3.38a7.44,7.44,0,0,0-.55-3.5c0.19-.7,4.85-4.35,1.43-8.2" transform="translate(0 -0.65)"/></g></g></g></g></g></g></g></svg>