<?xml version="1.0" encoding="utf-8"?>
<!-- Generator: Adobe Illustrator 20.1.0, SVG Export Plug-In . SVG Version: 6.00 Build 0)  -->
<svg version="1.1" id="Layer_1" xmlns="http://www.w3.org/2000/svg" xmlns:xlink="http://www.w3.org/1999/xlink" x="0px" y="0px"
	 viewBox="0 0 779 290" style="enable-background:new 0 0 779 290;" xml:space="preserve">
<style type="text/css">
	.st0{fill:#149F8E;}
	.st1{fill:#3CBDB2;}
	.st2{opacity:0.7;fill:#3CBDB2;enable-background:new    ;}
	.st3{opacity:0.7;fill:#7DCCC8;enable-background:new    ;}
	.st4{fill:#02253D;}
</style>
<path class="st0" d="M412.5,111.8c0,0-17.2,9.7-22.8,24c-5.8-14.3-22.8-24-22.8-24s13,11.7,19.4,29.3c-2.4,21.7-5.9,44.1-5.9,44.1
	h18.4c0,0-3.3-22.4-5.7-44.1C399.4,123.5,412.5,111.8,412.5,111.8L412.5,111.8z"/>
<circle class="st1" cx="389.7" cy="122.7" r="4"/>
<path class="st2" d="M393.7,106.8c0,5.4-4,9.8-4,9.8s-4-4.4-4-9.8c0-5.4,4-9.8,4-9.8S393.7,101.4,393.7,106.8z M373,139.8
	c-4.7,2.6-10.5,1.3-10.5,1.3s1.9-5.6,6.6-8.2s10.5-1.3,10.5-1.3S377.7,137.2,373,139.8z M407.3,139.3c4.7,2.6,10.5,1.3,10.5,1.3
	s-1.9-5.6-6.6-8.2s-10.5-1.3-10.5-1.3S402.5,136.7,407.3,139.3z M413.4,128.1c5.3-1.2,8.7-6,8.7-6s-5.1-2.9-10.4-1.7s-8.7,6-8.7,6
	S408.1,129.3,413.4,128.1z M366.7,128.1c-5.3-1.2-8.7-6-8.7-6s5.1-2.9,10.4-1.7s8.7,6,8.7,6S372,129.3,366.7,128.1z M403.6,113.6
	c-3.6,4-9.5,4.6-9.5,4.6s0-5.9,3.6-9.9s9.5-4.6,9.5-4.6S407.2,109.6,403.6,113.6z M376.7,113.6c3.6,4,9.5,4.6,9.5,4.6s0-5.9-3.6-9.9
	s-9.5-4.6-9.5-4.6S373.1,109.6,376.7,113.6z"/>
<path class="st3" d="M383.4,92.4c1.8,5.1-0.6,10.6-0.6,10.6s-5.2-2.8-7-8c-1.8-5.1,0.6-10.6,0.6-10.6S381.6,87.2,383.4,92.4z
	 M396.2,92.4c-1.8,5.1,0.6,10.6,0.6,10.6s5.2-2.8,7-8c1.8-5.1-0.6-10.6-0.6-10.6S397.9,87.2,396.2,92.4z M393.7,83.3
	c0,5.4-4,9.8-4,9.8s-4-4.4-4-9.8s4-9.8,4-9.8S393.7,77.9,393.7,83.3z M425.7,134.7c5.4,0.5,10.1-3.1,10.1-3.1s-4-4.4-9.4-4.8
	s-10.1,3.1-10.1,3.1S420.3,134.2,425.7,134.7z M354,134.7c-5.4,0.5-10.1-3.1-10.1-3.1s4-4.4,9.4-4.8s10.1,3.1,10.1,3.1
	S359.4,134.2,354,134.7z M352.3,115.6c-5.1-1.7-8-6.9-8-6.9s5.4-2.4,10.5-0.6s8,6.9,8,6.9S357.5,117.3,352.3,115.6z M427.1,115.6
	c5.1-1.7,8-6.9,8-6.9s-5.4-2.4-10.5-0.6s-8,6.9-8,6.9S421.9,117.3,427.1,115.6z M419.5,106.2c-4.4,3.1-10.3,2.4-10.3,2.4
	s1.3-5.8,5.7-8.9c4.4-3.1,10.3-2.4,10.3-2.4S423.9,103.1,419.5,106.2z M360.2,106.2c4.4,3.1,10.3,2.4,10.3,2.4s-1.3-5.8-5.7-8.9
	s-10.3-2.4-10.3-2.4S355.8,103.1,360.2,106.2z M417.4,93.8c-3.6,4-9.5,4.6-9.5,4.6s0-5.9,3.6-9.9c3.6-4,9.5-4.6,9.5-4.6
	S421,89.8,417.4,93.8z M362.8,93.8c3.6,4,9.5,4.6,9.5,4.6s0-5.9-3.6-9.9c-3.6-4-9.5-4.6-9.5-4.6S359.2,89.8,362.8,93.8z"/>
<path class="st0" d="M74.3,116.6l0.1,0.9c0,2.7,0.1,2.7,6.8,2.7c13.7,0,15.6-0.7,16.6-6.1c0.1-0.9,0.4-1.2,1-1.2s0.8,0.4,0.8,1.7
	c0,0.3,0,0.3-0.2,4.7c-0.1,0.7-0.1,1.5-0.1,2.2c0,3.1,0.1,7.2,0.2,8c0.1,0.5,0.1,0.9,0.1,1.4c0.1,0.5-0.3,1-0.9,1.1c0,0,0,0,0,0
	c-0.7,0-1.1-0.6-1.5-2.4c-0.7-3.5-1.4-4.3-3.5-4.8c-3.5-0.5-7-0.8-10.6-0.8c-5.5,0-7.8,0.2-8.2,0.6s-0.6,1.5-0.6,3.7v16
	c-0.3,6.9,2.2,10.2,7.6,10.4c1.2,0,1.7,0.3,1.7,1c0,0.7-0.6,1.1-1.6,1.1c-0.6,0-1.6-0.1-2.9-0.2c-1-0.1-5-0.2-8.4-0.2
	c-1.8,0-5.7,0.1-6.8,0.2s-2.1,0.2-2.6,0.2c-0.8,0-1.3-0.3-1.3-0.9c0-0.6,0.5-0.9,1.5-1.1c4.4-0.9,5.6-3.4,5.4-11.4v-40
	c0.2-8.7-1.9-12-7.7-12c-0.8-0.1-1.2-0.4-1.2-1s0.7-1.2,2-1.2c0.4,0,1.7,0.1,3,0.2c2.5,0.3,8.7,0.5,15.1,0.5c10.2,0,21-0.5,23.7-1
	c0.5-0.1,1.1-0.2,1.6-0.2c0.6,0,1.1,0.4,1.1,1c0,0.6-0.1,1.2-0.3,1.7c-0.1,0.6-0.7,6-0.8,8.6c0,1.5-0.4,2.2-1.2,2.2
	c-0.5,0-0.8-0.4-0.9-1.2c-0.2-2.8-1-5.2-2-6.2c-0.8-0.9-9.6-1.9-16.9-1.9s-8.2,0.4-8.2,4.3L74.3,116.6L74.3,116.6z M128.8,129
	c0-4.1-0.3-5.4-1.5-7c-2-2.4-4.9-3.7-8-3.7c-4.4,0-6.7,2-6.7,5.6c0,1.2,0.2,2.4,0.7,3.6c0.2,0.5,0.3,1.1,0.3,1.6
	c0,0.5-0.3,0.9-0.8,0.9c0,0-0.1,0-0.1,0c-1.5-0.1-3-0.5-4.4-1c-1-0.3-1.6-1.1-1.7-2.1c0-2.1,2-5.6,4.2-7.6c3.1-2.5,7-3.8,11-3.8
	c4.9,0,9.9,2.1,12.1,5c1.2,1.9,1.8,4.1,1.6,6.3v19.1c0,4.3,0.2,5.2,1.3,6.7c0.9,1.1,2.2,1.7,3.6,1.7c0.7,0,1.5-0.1,2.2-0.4
	c0.4,0,0.8,0.3,0.8,0.8c0,0,0,0,0,0c-0.1,1.1-3.9,2.6-6.6,2.6c-3.1,0-4.9-1.3-7.3-4.9c-5.2,3.8-8.8,5.3-13.1,5.3
	c-6.2,0-10.1-3.5-10.1-9.1c0-4.8,2.9-8.2,9.2-10.6c3.2-1.2,6.8-2,13.3-3C128.8,135,128.8,129,128.8,129z M128.8,137
	c-3.8,0.3-7.6,1.3-11,3c-3.4,1.6-5,4.1-5,7.5c0,4.4,2.9,7.3,7.2,7.3c2.9,0,5.6-1.2,7.6-3.3c0.9-1.1,1.2-2.3,1.2-4.8L128.8,137
	L128.8,137z M160.3,122.2c3.6-4.5,8-6.7,13.1-6.7c5.5,0,8.8,2.1,11.9,7.4c3.8-5,8.2-7.4,13.8-7.4c8.6,0,13.8,6,13.8,16v15.8
	c0.2,5.5,1.1,6.6,6.3,7.7c0.9,0.1,1.2,0.4,1.2,1c0,0.5-0.4,0.9-0.9,0.9c-0.1,0-0.1,0-0.2,0l-1.6-0.2c-1.6-0.2-3.2-0.3-4.8-0.3
	c-4,0-7.2,0.1-8.2,0.2c-0.5,0.1-1,0.1-1.5,0.1c-0.6,0.1-1.2-0.3-1.3-0.9c0-0.4,0.4-0.8,0.8-0.9c3.2-1.1,3.6-1.8,3.6-5.8v-16
	c0-4.5-0.6-7.1-2.4-9.5c-1.7-2.7-4.8-4.4-8-4.4c-4.8,0-9.7,3.3-9.7,6.4c0,0.4,0,0.9,0.1,1.3c0.2,0.9,0.2,1.5,0.3,1.8v19
	c0,5,1.1,6.3,6,7c1.2,0.1,1.6,0.4,1.6,1s-0.4,0.9-1.4,0.9l-1.6-0.1c-2-0.2-3.4-0.3-4.4-0.3c-2.9-0.1-5.7,0-8.6,0.3
	c-0.5,0.1-1,0.1-1.5,0.1c-0.5,0-1-0.3-1.2-0.8c0-0.5,0.1-0.6,2.4-1.4c1.8-1,2.1-1.8,2-6v-18c0-6.9-3.8-11.1-10-11.1
	c-5.7,0-9.6,3.3-9.6,8.1v20.9c0.3,4.6,1.6,6,6.1,6.5c1,0.1,1.5,0.5,1.5,1.1c-0.1,0.5-0.6,0.9-1.2,0.8c0,0,0,0,0,0
	c-0.4,0-1.2-0.1-2.3-0.2c-0.9-0.2-3.1-0.2-7.9-0.2l-4.5,0.1c-0.8,0.1-1.5,0.2-1.9,0.2c-0.5,0.1-1-0.3-1.1-0.8c0-0.7,0.2-0.8,2.6-1.6
	c1.4-0.5,1.9-1.9,2-5.4v-21.8c0-5.4-0.9-6.3-5.7-6.1c-0.5,0.1-1-0.3-1.1-0.8c0-0.4,0.3-0.7,1.1-0.9c3.2-1,6.4-2.3,9.4-3.8
	c1.6-1,1.9-1.1,2.3-1.1c0.6,0,0.7,0.2,0.7,1.9L160.3,122.2L160.3,122.2z M235.8,148.4c-0.1,5.1,0.7,5.9,6.2,6.4
	c1,0.2,1.7,0.6,1.7,1.2c-0.1,0.6-0.7,1-1.3,0.9c0,0,0,0,0,0c-0.6,0-1.7-0.1-3.2-0.2c-0.5-0.1-5.4-0.2-6.5-0.2
	c-1.5,0-3.8,0.2-5.1,0.3c-0.8,0.1-1.4,0.2-1.8,0.2c-0.6,0.1-1.2-0.3-1.3-0.9c0-0.6,0.3-0.8,1.8-1.3c2.4-1.2,2.8-2.2,2.8-6.1v-21.2
	c0.1-5.3-0.7-6.4-4.6-6.4c-0.9,0-1.3-0.3-1.4-0.7c-0.1-0.6,0.4-0.9,2.5-1.6c2.4-0.9,4.7-1.9,7-3.1c0.8-0.5,1.7-0.9,2.6-1.2
	c0.6,0,0.6,0,0.6,9.1L235.8,148.4L235.8,148.4z M235.3,97.4c1.6,2.5,1.6,2.5,1.6,3.1c0,1.6-3.1,5.1-4.4,5.1s-4.2-3.5-4.2-5.1
	c0-0.5,0.5-1.3,1.9-3.1c1.2-1.6,1.8-2,2.7-2S234.3,96,235.3,97.4L235.3,97.4z M260,145.1c0.4,7.4,1.2,8.4,7,9.5c1,0.1,1.4,0.5,1.4,1
	c0,0.6-0.5,1.1-1.1,1.1c-0.4,0-0.8-0.1-1.2-0.2l-2.6-0.1H260c-4.8,0-8.2,0-8.6,0.2c-0.9,0.1-1.7,0.2-1.9,0.2c-0.6,0-1.2-0.4-1.3-1
	c0-0.6,0.4-0.9,1.4-1.2c3.7-1.3,3.8-1.7,3.7-7.8V97c0.1-1.1,0-2.2-0.2-3.3c-0.3-1.6-1.7-2.7-3.3-2.6c-0.6,0-1.1,0-1.7,0.1h-0.4
	c-0.9,0-1.4-0.3-1.4-0.9c0-0.4,0.4-0.7,1.3-1c6.4-2.1,6.8-2.3,10.8-4.5c0.3-0.2,0.6-0.3,1-0.4c0.5,0,0.8,0.8,0.7,2L260,88V145.1
	L260,145.1z M298.9,129.4c0.7-1.8,1.1-3.7,1.2-5.7c0.1-1.4-0.5-2.8-1.5-3.8c-0.7-0.6-1.3-0.8-3.7-1.3c-0.9-0.2-1.2-0.5-1.2-1.1
	c0-0.4,0.3-0.8,0.7-0.8c0.1,0,0.1,0,0.2,0l2,0.1c1.3,0.1,2.5,0.1,3.8,0.1c2.8,0,4.9,0,5.8-0.1c0.7-0.1,1.5-0.1,2.2-0.1
	c0.4-0.1,0.9,0.2,1,0.6c0,0.1,0,0.1,0,0.2c0,0.6-0.5,1-1,1.1c-2.7,1-3,1.4-4.4,5l-17.2,48.5c-0.7,2.3-0.8,2.4-1.2,2.9
	c-0.3,0.2-0.7,0.3-1.1,0.3h-2.6c-3.2,0-3.3-0.1-3.3-0.7c0.1-0.4,0.3-0.7,0.6-0.9c4.4-4.3,8.5-11.8,8.5-15.6c0-1-0.6-2.8-1.9-5.8
	L273.6,124c-1.7-3.8-2.5-4.7-4.8-5.4c-0.8-0.2-1.1-0.5-1.1-0.9c0-0.6,0.7-1.1,1.7-1.1c0.3,0,1.3,0.1,2.3,0.2
	c0.8,0.1,2.2,0.1,4.4,0.1c3.2,0,5.9,0,6.9-0.1c0.6-0.1,1.3-0.1,1.9-0.1c0.5-0.1,1.1,0.2,1.2,0.8c0,0.1,0,0.1,0,0.2
	c0,0.7-0.6,0.9-2.6,1.3c-2.2,0.3-2.9,0.8-2.9,2.3c0.2,1.9,0.7,3.8,1.5,5.5l9.6,22.6L298.9,129.4z M520.1,120.4
	c3.1,0.1,3.4-0.2,3.3-3.5v-15.2c0.2-6.2-1.4-8.8-6.1-10c-1-0.2-1.4-0.5-1.4-1.1c0.1-0.6,0.6-1,1.2-0.9c0,0,0,0,0,0
	c1.1,0,2.2,0.1,3.3,0.3c1,0.1,5.5,0.3,6.7,0.3c2.1,0,6.8-0.2,7.5-0.3s1.5-0.2,1.8-0.2c0.6-0.1,1.1,0.3,1.2,0.9c0,0,0,0,0,0
	c0,0.7-0.1,0.8-3.1,1.4c-2.6,0.9-3.8,3.7-3.6,8.3v45.4c-0.2,6.5,1.6,9,7,9.7c1.1,0.1,1.6,0.4,1.6,1c-0.1,0.7-0.8,1.2-1.5,1.1
	c-0.4,0-1.3-0.1-2.4-0.2c-1.1-0.1-2-0.2-8.8-0.3l-3.4,0.1c-1,0.1-2.1,0.1-2.3,0.1l-3,0.3h-0.3c-0.8,0-1.2-0.3-1.2-0.9
	c0-0.7,0.4-1,1.6-1.2c4.3-1,5.2-2.8,5.2-10.3v-17.8c0-3-0.1-3.1-3.4-3.1h-28.5c-3.8,0-4.1,0.2-4.2,3.4v15.9
	c-0.2,8.5,1.4,11.1,7.5,11.7c1.2,0.2,1.9,0.6,1.9,1.2c-0.1,0.7-0.7,1.2-1.4,1.1c-0.5,0-1.4-0.1-2.4-0.2c-0.6-0.1-6.7-0.3-9.9-0.3
	c-2.1,0-4.2,0.1-6.3,0.3c-1.4,0.1-2.7,0.2-3.1,0.2c-0.8,0-1.2-0.3-1.2-0.9c0-0.9,0.2-1,3.7-1.8c2.9-0.9,3.8-4.1,3.7-12.9v-39.7
	c0.3-7.3-1.6-10.1-7.4-10.7c-0.9-0.2-1.4-0.5-1.4-1.1c0-0.6,0.6-1.1,1.2-1c0,0,0.1,0,0.1,0c1,0,1.9,0.1,2.9,0.3
	c0.6,0.1,8.1,0.5,9,0.5c2.1,0,4.3-0.2,6.4-0.4c0.9-0.1,1.6-0.2,2.1-0.2c0.7-0.1,1.3,0.4,1.4,1c0,0.7-0.2,0.8-3.1,1.6
	c-3,1.4-3.9,3.3-3.7,8.4v16c-0.1,3.7,0.2,3.9,4.2,3.9L520.1,120.4L520.1,120.4z M558.5,148.8c-0.1,5.1,0.7,5.9,6.2,6.4
	c1,0.2,1.7,0.6,1.7,1.2c-0.1,0.6-0.7,1-1.3,0.9c0,0,0,0,0,0c-0.6,0-1.7-0.1-3.2-0.2c-0.5-0.1-5.4-0.2-6.5-0.2
	c-1.5,0-3.8,0.2-5.1,0.3c-0.8,0.1-1.4,0.2-1.8,0.2c-0.6,0.1-1.2-0.3-1.3-0.9c0-0.6,0.3-0.8,1.8-1.3c2.4-1.2,2.8-2.2,2.8-6.1v-21.2
	c0.1-5.3-0.7-6.4-4.6-6.4c-0.9,0-1.3-0.3-1.4-0.7c-0.1-0.6,0.4-0.9,2.5-1.6c2.4-0.9,4.7-1.9,7-3.1c0.8-0.5,1.7-0.9,2.6-1.2
	c0.6,0,0.6,0,0.6,9.1L558.5,148.8L558.5,148.8z M558,97.8c1.6,2.5,1.6,2.5,1.6,3.1c0,1.6-3.1,5.1-4.4,5.1c-1.3,0-4.2-3.5-4.2-5.1
	c0-0.5,0.5-1.3,1.9-3.1c1.2-1.6,1.8-2,2.7-2C556.5,95.8,557,96.3,558,97.8L558,97.8z M570.9,148.3c-0.1-0.8-0.1-1.6-0.1-2.4
	c0-2.4,0.3-3.2,1.2-3.2c0.6,0,0.9,0.4,1.1,1.5c1.6,7.4,5.6,11.4,11.2,11.4c4.7,0,8.1-3.1,8.1-7.5c0-2.6-0.7-4.2-2.5-5.6
	c-1.4-1.1-1.4-1.1-7.3-3.7c-7.9-3.5-10.8-6.6-10.8-11.9c0-6.2,5.8-11.1,13.2-11.1c3.2,0,6.3,0.7,9.2,2c0.5,0.1,0.9,0.6,0.8,1.2
	c0,0,0,0,0,0v1.7c0.1,0.3,0.1,1.1,0.3,2.5c0.1,0.6,0.1,1.1,0.1,1.7c0,1.4-0.4,2.1-1.1,2.1c-0.4,0-0.7-0.4-1-1.3
	c-2-5-5.3-7.5-10.1-7.5c-3.9,0-6.7,2.5-6.7,5.9c0,3.6,2,5.2,10.2,8.4c8.2,3.2,10.9,6.1,10.9,12.1c-0.2,7.4-6.2,13.3-13.7,13.4
	c-3.1-0.1-6.2-0.9-9-2.3c-0.4-0.2-0.9-0.4-1.4-0.5l-1.3-0.2c-1.2-0.2-1.3-0.3-1.2-3.2L570.9,148.3z M614.6,146.3
	c0,3.7,0.3,5.1,1.4,6.2c1.5,1.4,3.5,2.2,5.6,2.1c2.6,0,3.6-0.3,7.6-2.3c0.1-0.1,0.3-0.1,0.4-0.1c0.3,0,0.5,0.2,0.5,0.4
	c0,0,0,0,0,0.1c0,2.2-6.5,5.4-11.1,5.4c-7.1,0-11.2-4.3-11.2-11.7v-24.6h-4.4c-0.8,0-1.2-0.2-1.2-0.8c0-0.4,0.3-0.9,1.3-1.7
	c3.3-2.8,6.2-6.1,8.7-9.7c1.1-1.7,1.5-2.1,1.9-2.1s0.7,0.5,0.7,1.3l-0.2,8.4H625c1.2,0.1,2.3-0.2,3.3-0.8c0.3-0.3,0.7-0.5,1.1-0.6
	c0.3,0,0.5,0.2,0.5,0.5c0,0,0,0.1,0,0.1c0,0.2,0,0.2-1.6,4c-0.5,1.3-0.8,1.4-3.6,1.4h-10.1L614.6,146.3L614.6,146.3z M674.8,137
	c0,12-9.4,21-21.7,21s-21.2-8.7-21.2-20.9c0-6.2,3.3-13.1,8-16.7c4-2.9,8.7-4.5,13.6-4.5C665.1,115.8,674.7,125.2,674.8,137
	C674.7,136.9,674.8,137,674.8,137L674.8,137z M638.7,134.1c0,12.5,7,21.8,16.3,21.8c7.9,0,12.9-6.4,12.9-16.6
	c0-12.7-6.5-21.6-15.7-21.6C644,117.8,638.7,124.3,638.7,134.1L638.7,134.1z M691.5,124.7c3.7-5.9,7.3-8.9,10.5-8.9
	c1.5,0,2.2,0.4,5.2,3c1.1,0.9,1.3,1.2,1.3,1.8c0,1.1-3,4.7-3.9,4.7c-0.3,0-0.7-0.2-2.1-1.2c-1.2-0.9-2.6-1.4-4-1.4c-3.9,0-7,3.1-7,7
	c0,0.1,0,0.3,0,0.4v17.3c0,6.3,1.4,7.8,7.4,8c1,0.1,1.6,0.5,1.6,1c-0.1,0.7-0.7,1.1-1.4,1c0,0,0,0,0,0c-0.2,0-1.1-0.1-2.3-0.2
	c-0.6-0.1-3.6-0.2-6.4-0.2c-2.5,0-4.9,0.1-7.4,0.3c-0.9,0.1-1.6,0.2-1.8,0.2c-0.6,0.1-1.2-0.4-1.3-1c0,0,0,0,0,0
	c0-0.6,0.4-0.9,1.5-1.1c3-0.8,3.4-1.5,3.4-7.4v-19.3c0-3.6-0.1-4.2-0.8-5.3c-1.3-1.4-3.1-2.1-5-2l-1.3,0.1c-0.5,0.1-1-0.3-1.1-0.8
	c0-0.7,0.5-1.1,1.8-1.2c3.9-0.7,7.5-2.2,10.9-4.3c0.4-0.2,0.8-0.3,1.2-0.4c0.8,0,1,0.5,1,2.6L691.5,124.7L691.5,124.7z M742.4,129.7
	c0.7-1.8,1.1-3.7,1.2-5.7c0.1-1.4-0.5-2.8-1.5-3.8c-0.7-0.6-1.3-0.8-3.7-1.3c-0.9-0.2-1.2-0.5-1.2-1.1c0-0.4,0.3-0.8,0.7-0.8
	c0.1,0,0.1,0,0.2,0l2,0.1c1.3,0.1,2.5,0.1,3.8,0.1c2.8,0,4.9,0,5.8-0.1c0.7-0.1,1.5-0.1,2.2-0.1c0.4-0.1,0.9,0.2,1,0.6
	c0,0.1,0,0.1,0,0.2c0,0.6-0.5,1-1,1.1c-2.7,1-3,1.4-4.4,5l-17.2,48.5c-0.7,2.3-0.8,2.4-1.2,2.9c-0.3,0.2-0.7,0.3-1.1,0.3h-2.6
	c-3.2,0-3.3-0.1-3.3-0.7c0.1-0.4,0.3-0.7,0.6-0.9c4.4-4.3,8.5-11.8,8.5-15.5c0-1-0.6-2.8-1.9-5.8l-12.2-28.3
	c-1.7-3.8-2.5-4.7-4.8-5.4c-0.8-0.2-1.1-0.5-1.1-0.9c0-0.6,0.7-1.1,1.7-1.1c0.3,0,1.3,0.1,2.3,0.2c0.8,0.1,2.2,0.1,4.4,0.1
	c3.2,0,5.9,0,6.9-0.1c0.6-0.1,1.3-0.1,1.9-0.1c0.5-0.1,1.1,0.2,1.2,0.8c0,0.1,0,0.1,0,0.2c0,0.7-0.6,0.9-2.6,1.3
	c-2.2,0.3-2.9,0.8-2.9,2.3c0.2,1.9,0.7,3.8,1.5,5.5l9.6,22.6L742.4,129.7z"/>
<path class="st2" d="M139.2,54c-1.9-0.1-2.2,0.3-2.2,2.4v32.2c-0.1,4.3,0.9,5.7,4.4,6.4c0.8,0.2,1.2,0.4,1.2,0.8
	c0,0.4-0.4,0.8-0.9,0.8c-0.6,0-1.1-0.1-1.7-0.2c-0.7-0.1-1.2-0.1-5.5-0.1c-4,0.1-4,0.1-4.8,0.1c-1.2,0.1-2,0.2-2.2,0.2
	c-0.5,0.1-0.9-0.2-1-0.7c0,0,0,0,0,0c0-0.4,0.3-0.6,1.1-0.8c3.7-0.5,4.5-1.6,4.4-6.3v-32c-0.1-2.6-0.1-2.7-2-2.7H121
	c-4,0.3-4.8,1-5.7,5.1c-0.2,0.9-0.5,1.3-0.9,1.3c-0.4-0.1-0.7-0.6-0.6-1c0.1-0.8,0.2-1.7,0.4-2.5c0.2-1.4,0.5-3.3,0.5-4
	c-0.1-1.9,0.3-2.4,1.8-2.5h35.8c2.5,0,2.6,0.1,2.6,3.4c0,0.7,0,1.5,0.1,2.2c0.1,0.6,0.2,1.1,0.2,1.7c0,0.5-0.3,0.9-0.8,1
	c-0.3,0-0.5-0.3-0.8-1c-0.5-3-1.6-3.8-5.1-3.7H139.2z M165.4,73.1c2.9-3.4,6-5.1,9.5-5.1c3.5,0,6.7,1.8,8.6,4.7
	c1.3,2,1.9,4.4,1.8,6.8V90c0,3.5,0.5,4.1,4.4,4.8c0.6,0.1,0.9,0.3,0.9,0.7c0,0.4-0.3,0.6-1,0.6c-0.5,0-1,0-1.6-0.1
	c-1.6-0.1-3.3-0.1-4.2-0.1s-3.9,0.1-4.3,0.2c-0.4,0-0.7,0.1-1.1,0.1c-0.4,0-0.7-0.2-0.9-0.6c0-0.3,0.1-0.4,1.6-1
	c1.4-0.6,1.6-1,1.6-3.8V79.7c0-5.5-3.1-9-7.8-9c-3.9,0-7.4,2.7-7.4,5.5v12.9c0.1,4.6,0.6,5.3,4.5,5.8c0.8,0.1,1.2,0.3,1.2,0.8
	c0,0.3-0.3,0.6-0.6,0.6c0,0-0.1,0-0.1,0c-0.3,0-1.1-0.1-1.9-0.1c-0.6-0.1-2.9-0.1-4.8-0.1c-1.2,0-2.6,0.1-4,0.2
	c-0.5,0.1-1.1,0.1-1.6,0.1c-0.3,0.1-0.7-0.1-0.8-0.5c0,0,0-0.1,0-0.1c0-0.4,0.4-0.7,0.8-0.8c2.7-0.8,2.9-1.4,2.9-5.9V55.2
	c0.1-0.9,0-1.8-0.4-2.6c-0.3-0.6-0.8-1.1-1.5-1.3l-2.3,0.1c-0.3,0-0.5-0.3-0.5-0.5c0-0.4,0.4-0.7,0.8-0.7c2.5-0.8,4.9-1.8,7.2-3
	c0.2-0.1,0.5-0.2,0.8-0.2c0.3,0,0.6,0.3,0.6,0.6c0,0,0,0.1,0,0.1l-0.1,2.6L165.4,73.1L165.4,73.1z M196.5,80.2v0.5
	c0.1,7,5,12.8,10.9,12.8c2.7,0,4.5-0.8,7.8-3.2c0.1-0.2,0.3-0.3,0.6-0.3c0.3,0.1,0.4,0.3,0.4,0.5c0,0.7-0.8,1.7-2.7,3.1
	c-2.5,2-5.6,3.1-8.9,3.1c-7.1,0-12.7-6.3-12.7-14.2S197.8,68,204.5,68c3.6,0,6.9,1.7,9.1,4.6c1.2,1.6,2.4,4.7,2.4,5.8
	c0,0.8-0.6,1.1-2.2,1.1s-1.6,0-4.7-0.1h-12.6L196.5,80.2L196.5,80.2z M207.9,77.6c2.2,0,2.7-0.2,2.7-1c0-3.5-3.6-7.1-7.1-7.1
	s-6.2,3.1-6.8,8.1L207.9,77.6L207.9,77.6z M568.2,201.8c0.1-4-0.5-4.7-4.4-5c-0.9-0.1-1.3-0.4-1.3-0.9s0.3-0.6,1.2-0.6l3.5,0.1
	c2.7,0,5.8,0,6.3-0.1l2.6-0.1c0.5,0,0.8,0.2,0.8,0.6c0,0.4-0.3,0.7-1,0.8c-2,0.5-2.5,1.6-2.5,4.8V212l0.1,1.1c0,0.5-0.3,0.6-1.2,0.8
	s-1.4,0.4-5,2.4c-4.3,2.4-9.1,3.6-13.9,3.7c-5.6,0-11.6-2-15.4-5.4c-4.6-3.9-7.3-10.4-7.3-17.3c0-14.1,10.1-24.4,23.9-24.4
	c5,0,11.8,1.8,15.2,4c0.2,0.2,0.4,0.2,0.6,0.3c0.2,0,0.3-0.1,1.4-0.9c0.1-0.1,0.3-0.2,0.5-0.2c0.4,0,0.6,0.5,0.6,1.4
	c0.1,2.7,0.5,5.4,1,8c0.1,0.4,0.1,0.7,0.1,1.1c0,0.4-0.3,0.8-0.8,0.8c-0.3,0-0.5-0.2-0.6-0.5c-3.8-7.3-11.3-12-19.5-12
	c-9.9,0-16.9,8.5-16.9,20.5c0,12.9,8.2,22.7,19,22.7c4.7,0.1,9.1-1.9,12.1-5.4c0.8-1,1-2.2,1-4.6L568.2,201.8L568.2,201.8z
	 M610.4,217.4c0.3-0.1,0.7,0.1,0.7,0.5c0,0,0,0.1,0,0.1c0,0.7,0,0.7-4,0.9c-0.9,0-1.9,0.1-2.8,0.3c-0.4,0.1-0.9,0.2-1.3,0.2
	c-0.8,0-0.9-0.2-1-4.4c-0.8,1.1-1.7,2-2.7,2.9c-2,1.3-4.3,2.1-6.7,2.1c-2.6,0-5.2-1-7.1-2.7c-1.8-1.8-2.7-4.5-2.7-8.2l0.1-2.2v-11
	c-0.2-2.4-0.9-3.1-3.3-3.1c-0.5-0.1-0.8-0.3-0.8-0.6c0-0.6,0.3-0.7,2-0.8c1.7,0,3.4-0.2,5-0.5c0.2-0.1,0.5-0.1,0.8-0.1
	c0.8,0,0.9,0.3,0.9,2.1l-0.1,14.8v1.1c0,5.5,2.9,8.9,7.4,8.9c2.7,0,5.1-1.3,6.7-3.5c0.6-1,0.7-1.4,0.7-3.3l-0.1-14.7
	c0.1-2.5-0.5-3.2-3-3.3c-0.8,0-1.1-0.2-1.1-0.7s0.2-0.8,2.3-0.8l2.3-0.1c0.9-0.1,1.7-0.2,2.6-0.5c0.3-0.1,0.5-0.1,0.8-0.1
	c0.5,0,0.7,0.3,0.7,1.6v20.4c0,4.3,0.3,5,2.8,5c0.2,0,0.4,0,0.5-0.1L610.4,217.4L610.4,217.4z M623.6,213.7c-0.1,3.5,0.5,4,4.2,4.4
	c0.5,0,1,0.3,1.2,0.8c-0.1,0.4-0.5,0.7-0.9,0.6c0,0,0,0,0,0c-0.4,0-1.2-0.1-2.2-0.1c-0.3-0.1-3.7-0.1-4.4-0.1c-1,0-2.6,0.1-3.5,0.2
	c-0.5,0.1-1,0.1-1.2,0.1c-0.4,0.1-0.8-0.2-0.9-0.6c0-0.4,0.2-0.5,1.2-0.9c1.6-0.8,1.9-1.5,1.9-4.1v-14.5c0.1-3.6-0.5-4.4-3.1-4.4
	c-0.4,0.1-0.8-0.1-1-0.5c-0.1-0.4,0.3-0.6,1.7-1.1c1.6-0.6,3.2-1.3,4.8-2.1c0.5-0.4,1.1-0.6,1.8-0.8c0.4,0,0.4,0,0.4,6.2
	L623.6,213.7L623.6,213.7z M623.3,178.9c1.1,1.7,1.1,1.7,1.1,2.1c0,1.1-2.1,3.5-3,3.5s-2.9-2.4-2.9-3.5c0-0.3,0.3-0.9,1.3-2.1
	s1.2-1.4,1.8-1.4S622.6,177.9,623.3,178.9L623.3,178.9z M653.6,215.1c-1.2,1-2.4,2-3.6,2.9c-2,1.3-4.3,1.9-6.7,2
	c-6.7,0-11.8-5.9-11.8-13.8c0-8.3,6.3-15,14-15c2.9,0,5.7,0.8,8.1,2.4v-13c-0.1-5-1-6.2-4.6-6.1c-0.5,0-0.8-0.2-0.8-0.6
	c0-0.4,0.3-0.7,1-0.8c2.8-0.5,5.4-1.5,7.8-3.1c0.2-0.1,0.4-0.2,0.7-0.2c0.4,0,0.4,0.1,0.5,1.3v41.5c0,2.6,0,2.6,0.3,3.2
	c0.5,0.9,1.5,1.4,2.6,1.3c0.4,0,0.7,0,1.1-0.1h0.3c0.3-0.1,0.6,0.1,0.6,0.4c0,0,0,0.1,0,0.1c0,0.5-0.4,0.8-1.2,0.9
	c-3.1,0.3-6,0.9-6.5,1.2c-0.3,0.2-0.6,0.3-1,0.3c-0.5,0-0.8-0.5-0.8-1.6L653.6,215.1L653.6,215.1z M653.6,200.1
	c0-2.4-0.3-3.3-1.5-4.5c-2.2-2-5-3.1-7.9-3.1c-5.2,0-8.8,4.5-8.8,11c0,7.3,5,13.5,11,13.5c2.1,0,4.2-0.8,5.8-2.2
	c1.1-0.9,1.7-2.4,1.5-3.8V200.1L653.6,200.1z M669.5,203.4v0.5c0.1,7,5,12.8,10.9,12.8c2.7,0,4.5-0.8,7.8-3.2
	c0.1-0.2,0.3-0.3,0.5-0.3c0.2,0.1,0.4,0.3,0.4,0.5c0,0.7-0.8,1.7-2.7,3.1c-2.5,2-5.6,3.1-8.8,3.1c-7.1,0-12.7-6.3-12.7-14.1
	s5.8-14.6,12.5-14.6c3.6,0,6.9,1.8,9,4.6c1.2,1.6,2.5,4.7,2.5,5.8c0,0.8-0.6,1.1-2.2,1.1s-1.6,0-4.7-0.1h-12.5V203.4L669.5,203.4z
	 M680.9,200.8c2.2,0,2.7-0.2,2.7-1c0-3.5-3.6-7.1-7.1-7.1s-6.2,3.1-6.7,8.1L680.9,200.8L680.9,200.8z"/>
<path class="st4" d="M460.8,125.7c0-39-31.6-70.6-70.5-70.6c-39,0-70.6,31.6-70.6,70.5s31.6,70.6,70.5,70.6c16.8,0,33.1-6,45.9-16.9
	l4,4l-2.5,2.4l81.6,81.6l12.7-12.7L450.3,173l-2.5,2.5l-4-4C454.8,158.7,460.8,142.5,460.8,125.7L460.8,125.7z M331.7,125.7
	c0-32.3,26.2-58.5,58.5-58.5s58.5,26.2,58.5,58.5s-26.2,58.5-58.5,58.5c-32.1,0.2-58.3-25.7-58.5-57.8
	C331.7,126.2,331.7,125.9,331.7,125.7z"/>
</svg>
