<svg id="Layer_1" data-name="Layer 1" xmlns="http://www.w3.org/2000/svg" viewBox="0 0 191.95 191.95"><defs><style>.cls-1{fill:#2ec4b6;}</style></defs><title>icon-fb-white</title><path class="cls-1" d="M96,191.95a96,96,0,1,1,96-96A96.08,96.08,0,0,1,96,191.95ZM96,4.68A91.29,91.29,0,1,0,187.27,96,91.4,91.4,0,0,0,96,4.68Z"/><path class="cls-1" d="M75.65,81.71h8.71V73.24c0-3.74.09-9.49,2.81-13.06,2.86-3.78,6.78-6.34,13.53-6.34,11,0,15.62,1.57,15.62,1.57l-2.18,12.91a29.35,29.35,0,0,0-7-1.05c-3.39,0-6.42,1.21-6.42,4.6v9.84h13.89l-1,12.61H100.69v43.8H84.36V94.31H75.65V81.71Z"/></svg>