<svg id="Layer_1" data-name="Layer 1" xmlns="http://www.w3.org/2000/svg" viewBox="0 0 191.95 191.95"><defs><style>.cls-1{fill:#f47e20;}</style></defs><title>Untitled-1</title><path class="cls-1" d="M96,191.95a96,96,0,1,1,96-96A96.08,96.08,0,0,1,96,191.95ZM96,4.68A91.29,91.29,0,1,0,187.27,96,91.4,91.4,0,0,0,96,4.68Z"/><path class="cls-1" d="M131.84,88l-0.6-1.26-1-.8c-1.33-1-8.06.07-9.87-1.57-1.28-1.19-1.48-3.32-1.86-6.19-0.73-5.59-1.19-5.88-2.06-7.77-3.17-6.73-11.76-11.78-17.66-12.49h-16A23,23,0,0,0,59.9,80.81V107.5a22.92,22.92,0,0,0,22.87,22.84H109a23,23,0,0,0,22.87-22.84L132.06,89ZM83.05,76.62H95.73a4.37,4.37,0,1,1,0,8.74H83.05A4.37,4.37,0,1,1,83.05,76.62Zm25.77,34.89H83.05a4.36,4.36,0,1,1,0-8.71h25.77A4.36,4.36,0,0,1,108.82,111.52Z"/></svg>