<svg id="Layer_1" data-name="Layer 1" xmlns="http://www.w3.org/2000/svg" xmlns:xlink="http://www.w3.org/1999/xlink" viewBox="0 0 89.32 77.19"><defs><style>.cls-1{fill:url(#linear-gradient);}.cls-2{fill:#333331;}</style><linearGradient id="linear-gradient" x1="44.66" y1="1.39" x2="44.66" y2="77.19" gradientUnits="userSpaceOnUse"><stop offset="0" stop-color="#e3e3de"/><stop offset="1" stop-color="#d1d1cc"/></linearGradient></defs><title>Untitled-3</title><rect class="cls-1" width="89.32" height="77.19"/><path class="cls-2" d="M55.82,26H70.3A1.66,1.66,0,0,0,72,24.33V11.86A1.66,1.66,0,0,0,70.3,10.2H55.82a1.67,1.67,0,0,0-1.66,1.66V16.1H46.6a2.44,2.44,0,0,0-2.44,2.44V28.1h-8V23.86A1.67,1.67,0,0,0,34.5,22.2H17.82a1.67,1.67,0,0,0-1.66,1.66V38.33A1.67,1.67,0,0,0,17.82,40H34.5a1.67,1.67,0,0,0,1.66-1.66V34.1h8v9.56A2.44,2.44,0,0,0,46.6,46.1h7.56v4.24A1.67,1.67,0,0,0,55.82,52H70.3A1.66,1.66,0,0,0,72,50.33V37.86A1.66,1.66,0,0,0,70.3,36.2H55.82a1.67,1.67,0,0,0-1.66,1.66V42.1h-6v-22h6v4.24A1.67,1.67,0,0,0,55.82,26Z"/><path class="cls-2" d="M15.26,69.9v-8H20.5v0.89H16.26v2.58h4.16v0.89H16.26V69.9h-1Z"/><path class="cls-2" d="M25.45,69.9V69.24a2.51,2.51,0,0,1-1.92.8,1.93,1.93,0,0,1-2-1.92,1.9,1.9,0,0,1,2-1.91,2.42,2.42,0,0,1,1.92.79V66A1.28,1.28,0,0,0,24,64.74a2.3,2.3,0,0,0-1.77.8l-0.42-.62a3,3,0,0,1,2.31-1c1.22,0,2.24.55,2.24,2v4h-0.9Zm0-1.22V67.58a1.94,1.94,0,0,0-1.6-.72,1.27,1.27,0,1,0,0,2.53A1.94,1.94,0,0,0,25.45,68.67Z"/><path class="cls-2" d="M35.14,69.9V66a1,1,0,0,0-1.07-1.2,2,2,0,0,0-1.54.89V69.9h-0.9V66a1,1,0,0,0-1.07-1.2,2,2,0,0,0-1.52.9V69.9h-0.9V64.11H29v0.84a2.5,2.5,0,0,1,1.87-1A1.49,1.49,0,0,1,32.48,65,2.44,2.44,0,0,1,34.42,64,1.5,1.5,0,0,1,36,65.71V69.9h-0.9Z"/><path class="cls-2" d="M37.69,62.68a0.61,0.61,0,1,1,1.21,0A0.61,0.61,0,0,1,37.69,62.68Zm0.16,7.22V64.11h0.9V69.9h-0.9Z"/><path class="cls-2" d="M40.55,69.9v-8h0.9v8h-0.9Z"/><path class="cls-2" d="M43.07,71.35a1.39,1.39,0,0,0,.49.1,0.83,0.83,0,0,0,.86-0.61L44.8,70l-2.42-5.85h1l1.93,4.75,1.92-4.75h1l-2.9,7a1.72,1.72,0,0,1-1.7,1.17,2.93,2.93,0,0,1-.66-0.08Z"/><path class="cls-2" d="M54.24,69.9V62.79H51.71V61.9h6.07v0.89H55.23V69.9h-1Z"/><path class="cls-2" d="M58,69.9V64.11h0.9V65A2.46,2.46,0,0,1,60.87,64v0.92a1.56,1.56,0,0,0-.36,0,2.12,2.12,0,0,0-1.57.92v4.1H58Z"/><path class="cls-2" d="M61.67,67a2.9,2.9,0,0,1,2.85-3,2.81,2.81,0,0,1,2.78,3.11V67.3H62.61a2,2,0,0,0,2.09,2,2.53,2.53,0,0,0,1.79-.73l0.43,0.59a3.15,3.15,0,0,1-2.3.89A2.87,2.87,0,0,1,61.67,67Zm2.84-2.29a1.93,1.93,0,0,0-1.9,1.93h3.8A1.88,1.88,0,0,0,64.51,64.71Z"/><path class="cls-2" d="M68.42,67a2.9,2.9,0,0,1,2.85-3,2.81,2.81,0,0,1,2.78,3.11V67.3H69.37a2,2,0,0,0,2.09,2,2.53,2.53,0,0,0,1.79-.73l0.43,0.59a3.15,3.15,0,0,1-2.3.89A2.87,2.87,0,0,1,68.42,67Zm2.84-2.29a1.93,1.93,0,0,0-1.9,1.93h3.8A1.88,1.88,0,0,0,71.26,64.71Z"/></svg>