<svg id="Layer_1" data-name="Layer 1" xmlns="http://www.w3.org/2000/svg" viewBox="0 0 694.4 220.2"><defs><style>.cls-1{fill:#17a08f;}.cls-2,.cls-3{fill:#3dbeb3;}.cls-3,.cls-4,.cls-5{opacity:0.7;}.cls-5{fill:#7ecdc9;}.cls-6{fill:#081928;}.cls-7{fill:#f99f22;}</style></defs><title>Untitled-1</title><path class="cls-1" d="M354.23,64.75s-17.17,9.71-22.74,23.94c-5.82-14.32-22.74-23.94-22.74-23.94s13,11.66,19.36,29.28c-2.43,21.66-5.93,44.07-5.93,44.07h18.35s-3.23-22.4-5.66-44.07C341.2,76.42,354.23,64.75,354.23,64.75Z"/><circle class="cls-2" cx="331.48" cy="75.67" r="3.97"/><path class="cls-3" d="M335.45,59.78c0,5.41-4,9.79-4,9.79s-4-4.38-4-9.79,4-9.79,4-9.79S335.45,54.38,335.45,59.78Z"/><path class="cls-3" d="M314.77,92.72C310,95.35,304.29,94,304.29,94s1.9-5.6,6.63-8.23,10.48-1.29,10.48-1.29S319.5,90.09,314.77,92.72Z"/><path class="cls-3" d="M349,92.22c4.72,2.63,10.48,1.29,10.48,1.29s-1.9-5.6-6.63-8.23S342.38,84,342.38,84,344.28,89.59,349,92.22Z"/><path class="cls-3" d="M355.09,81c5.28-1.18,8.69-6,8.69-6s-5.14-2.92-10.42-1.74-8.69,6-8.69,6S349.81,82.21,355.09,81Z"/><path class="cls-3" d="M308.51,81c-5.28-1.18-8.69-6-8.69-6s5.14-2.92,10.42-1.74,8.69,6,8.69,6S313.79,82.21,308.51,81Z"/><path class="cls-3" d="M345.32,66.54c-3.62,4-9.51,4.6-9.51,4.6s0-5.91,3.62-9.93,9.51-4.6,9.51-4.6S348.95,62.53,345.32,66.54Z"/><path class="cls-3" d="M318.45,66.54c3.62,4,9.51,4.6,9.51,4.6s0-5.91-3.62-9.93-9.51-4.6-9.51-4.6S314.83,62.53,318.45,66.54Z"/><g class="cls-4"><path class="cls-5" d="M325.15,45.33c1.76,5.11-.56,10.55-0.56,10.55s-5.18-2.85-6.95-8,0.56-10.55.56-10.55S323.39,40.22,325.15,45.33Z"/><path class="cls-5" d="M337.92,45.33c-1.76,5.11.56,10.55,0.56,10.55s5.18-2.85,6.95-8-0.56-10.55-.56-10.55S339.69,40.22,337.92,45.33Z"/><path class="cls-5" d="M335.45,36.31c0,5.41-4,9.79-4,9.79s-4-4.38-4-9.79,4-9.79,4-9.79S335.45,30.9,335.45,36.31Z"/><path class="cls-5" d="M367.43,87.61c5.38,0.48,10.11-3.08,10.11-3.08s-4-4.35-9.39-4.83S358,82.78,358,82.78,362,87.12,367.43,87.61Z"/><path class="cls-5" d="M295.74,87.61c-5.38.48-10.11-3.08-10.11-3.08s4-4.35,9.39-4.83,10.11,3.08,10.11,3.08S301.13,87.12,295.74,87.61Z"/><path class="cls-5" d="M294.12,68.51c-5.12-1.72-8-6.88-8-6.88s5.42-2.36,10.54-.64,8,6.88,8,6.88S299.25,70.24,294.12,68.51Z"/><path class="cls-5" d="M368.78,68.51c5.12-1.72,8-6.88,8-6.88s-5.42-2.36-10.54-.64-8,6.88-8,6.88S363.65,70.24,368.78,68.51Z"/><path class="cls-5" d="M361.24,59.13c-4.43,3.1-10.29,2.37-10.29,2.37s1.31-5.77,5.74-8.87S367,50.26,367,50.26,365.66,56,361.24,59.13Z"/><path class="cls-5" d="M302,59.13c4.43,3.1,10.29,2.37,10.29,2.37s-1.31-5.77-5.74-8.87-10.29-2.37-10.29-2.37S297.58,56,302,59.13Z"/><path class="cls-5" d="M359.11,46.76c-3.62,4-9.51,4.6-9.51,4.6s0-5.91,3.62-9.93,9.51-4.6,9.51-4.6S362.73,42.75,359.11,46.76Z"/><path class="cls-5" d="M304.57,46.76c3.62,4,9.51,4.6,9.51,4.6s0-5.91-3.62-9.93-9.51-4.6-9.51-4.6S300.94,42.75,304.57,46.76Z"/></g><path class="cls-6" d="M16.24,69.56l0.1,0.9c0,2.69.1,2.69,6.78,2.69,13.65,0,15.54-.7,16.54-6.08,0.1-.9.4-1.2,1-1.2s0.8,0.4.8,1.69c0,0.3,0,.3-0.2,4.68a13.42,13.42,0,0,0-.1,2.19c0,3.09.1,7.17,0.2,8a7.06,7.06,0,0,1,.1,1.4,1,1,0,0,1-.9,1.1c-0.7,0-1.1-.6-1.49-2.39-0.7-3.49-1.4-4.28-3.49-4.78A68.19,68.19,0,0,0,25,76.93c-5.48,0-7.77.2-8.17,0.6s-0.6,1.49-.6,3.69v16c-0.3,6.88,2.19,10.16,7.57,10.36,1.2,0,1.69.3,1.69,1s-0.6,1.1-1.59,1.1c-0.6,0-1.59-.1-2.89-0.2-1-.1-5-0.2-8.37-0.2-1.79,0-5.68.1-6.78,0.2s-2.09.2-2.59,0.2c-0.8,0-1.29-.3-1.29-0.9s0.5-.9,1.49-1.1c4.38-.9,5.58-3.39,5.38-11.36v-40c0.2-8.67-1.89-12-7.67-12-0.8-.1-1.2-0.4-1.2-1s0.7-1.2,2-1.2c0.4,0,1.69.1,3,.2,2.49,0.3,8.67.5,15,.5,10.16,0,21-.5,23.71-1a11.51,11.51,0,0,1,1.59-.2,1.09,1.09,0,0,1,1.1,1,6.07,6.07,0,0,1-.3,1.69c-0.1.6-.7,6-0.8,8.57,0,1.49-.4,2.19-1.2,2.19q-0.75,0-.9-1.2c-0.2-2.79-1-5.18-2-6.18-0.8-.9-9.57-1.89-16.84-1.89s-8.17.4-8.17,4.28V69.56Z"/><path class="cls-6" d="M70.74,81.91c0-4.09-.3-5.38-1.49-7a10.3,10.3,0,0,0-8-3.69c-4.38,0-6.68,2-6.68,5.58a9.64,9.64,0,0,0,.7,3.59A8,8,0,0,1,55.6,82a0.84,0.84,0,0,1-.9.9,15.53,15.53,0,0,1-4.38-1,2.28,2.28,0,0,1-1.69-2.09c0-2.09,2-5.58,4.18-7.57a17.78,17.78,0,0,1,11-3.79c4.88,0,9.86,2.09,12.06,5a10.45,10.45,0,0,1,1.59,6.28V98.85c0,4.28.2,5.18,1.3,6.68a4.44,4.44,0,0,0,3.59,1.69,6.81,6.81,0,0,0,2.19-.4,0.79,0.79,0,0,1,.8.8c-0.1,1.1-3.89,2.59-6.58,2.59-3.09,0-4.88-1.3-7.27-4.88-5.18,3.79-8.77,5.28-13.05,5.28-6.18,0-10.06-3.49-10.06-9.07,0-4.78,2.89-8.17,9.17-10.56,3.19-1.2,6.78-2,13.25-3V81.91Zm0,8a30.83,30.83,0,0,0-11,3c-3.39,1.59-5,4.08-5,7.47,0,4.38,2.89,7.27,7.17,7.27a10.32,10.32,0,0,0,7.57-3.29c0.9-1.1,1.2-2.29,1.2-4.78V89.88Z"/><path class="cls-6" d="M102.22,75.14c3.59-4.48,8-6.68,13.05-6.68,5.48,0,8.77,2.09,11.86,7.37,3.79-5,8.17-7.37,13.75-7.37,8.57,0,13.75,6,13.75,15.94v15.74c0.2,5.48,1.1,6.58,6.28,7.67,0.9,0.1,1.2.4,1.2,1a0.91,0.91,0,0,1-1.1.9l-1.59-.1a31.26,31.26,0,0,0-4.78-.3c-4,0-7.17.1-8.17,0.2a9.85,9.85,0,0,1-1.49.1,1.16,1.16,0,0,1-1.29-.9,1,1,0,0,1,.8-0.9c3.19-1.1,3.59-1.79,3.59-5.78V86.1c0-4.48-.6-7.07-2.39-9.47a9.45,9.45,0,0,0-8-4.38c-4.78,0-9.67,3.29-9.67,6.38a6.13,6.13,0,0,0,.1,1.3c0.2,0.9.2,1.49,0.3,1.79v19c0,5,1.1,6.28,6,7,1.2,0.1,1.59.4,1.59,1s-0.4.9-1.4,0.9l-1.59-.1c-2-.2-3.39-0.3-4.38-0.3a67.14,67.14,0,0,0-8.57.3,8.61,8.61,0,0,1-1.49.1,1.15,1.15,0,0,1-1.2-.8c0-.5.1-0.6,2.39-1.4,1.79-1,2.09-1.79,2-6v-18c0-6.88-3.79-11.06-10-11.06-5.68,0-9.57,3.29-9.57,8.07v20.92c0.3,4.58,1.59,6,6.08,6.48,1,0.1,1.49.5,1.49,1.1a1,1,0,0,1-1.2.8c-0.4,0-1.2-.1-2.29-0.2-0.9-.2-3.09-0.2-7.87-0.2l-4.48.1c-0.8.1-1.49,0.2-1.89,0.2a1,1,0,0,1-1.1-.8c0-.7.2-0.8,2.59-1.59,1.4-.5,1.89-1.89,2-5.38V80c0-5.38-.9-6.28-5.68-6.08a1,1,0,0,1-1.1-.8c0-.4.3-0.7,1.1-0.9a61.44,61.44,0,0,0,9.37-3.79c1.59-1,1.89-1.1,2.29-1.1,0.6,0,.7.2,0.7,1.89v5.88Z"/><path class="cls-6" d="M177.65,101.34c-0.1,5.08.7,5.88,6.18,6.38,1,0.2,1.69.6,1.69,1.2a1.1,1.1,0,0,1-1.3.9c-0.6,0-1.69-.1-3.19-0.2-0.5-.1-5.38-0.2-6.48-0.2-1.49,0-3.79.2-5.08,0.3-0.8.1-1.4,0.2-1.79,0.2a1.16,1.16,0,0,1-1.29-.9c0-.6.3-0.8,1.79-1.3,2.39-1.2,2.79-2.19,2.79-6.08V80.42c0.1-5.28-.7-6.38-4.58-6.38-0.9,0-1.3-.3-1.4-0.7-0.1-.6.4-0.9,2.49-1.59a75.83,75.83,0,0,0,7-3.09,9.68,9.68,0,0,1,2.59-1.2c0.6,0,.6,0,0.6,9.07v24.81Zm-0.5-50.92c1.59,2.49,1.59,2.49,1.59,3.09,0,1.59-3.09,5.08-4.38,5.08s-4.19-3.49-4.19-5.08c0-.5.5-1.3,1.89-3.09,1.2-1.59,1.79-2,2.69-2S176.15,48.93,177.15,50.43Z"/><path class="cls-6" d="M201.86,98.05c0.4,7.37,1.2,8.37,7,9.47,1,0.1,1.4.5,1.4,1a1.11,1.11,0,0,1-1.1,1.1,9.59,9.59,0,0,1-1.2-.2l-2.59-.1h-3.49c-4.78,0-8.17,0-8.57.2-0.9.1-1.69,0.2-1.89,0.2a1.23,1.23,0,0,1-1.29-1c0-.6.4-0.9,1.39-1.2,3.69-1.3,3.79-1.69,3.69-7.77V49.93a11.57,11.57,0,0,0-.2-3.29A3.23,3.23,0,0,0,191.69,44a14.83,14.83,0,0,0-1.69.1h-0.4c-0.9,0-1.4-.3-1.4-0.9,0-.4.4-0.7,1.3-1,6.38-2.09,6.78-2.29,10.76-4.48a3.36,3.36,0,0,1,1-.4c0.5,0,.8.8,0.7,2L201.86,41V98.05Z"/><path class="cls-6" d="M240.72,82.31a16.59,16.59,0,0,0,1.2-5.68,4.93,4.93,0,0,0-1.49-3.79c-0.7-.6-1.3-0.8-3.69-1.3-0.9-.2-1.2-0.5-1.2-1.1a0.77,0.77,0,0,1,.9-0.8l2,0.1a35.54,35.54,0,0,0,3.79.1c2.79,0,4.88,0,5.78-.1a20.28,20.28,0,0,1,2.19-.1,0.8,0.8,0,0,1,1,.8,1.22,1.22,0,0,1-1,1.1c-2.69,1-3,1.4-4.38,5L228.56,125c-0.7,2.29-.8,2.39-1.2,2.89a3.86,3.86,0,0,1-1.1.3h-2.59c-3.19,0-3.29-.1-3.29-0.7a1.4,1.4,0,0,1,.6-0.9c4.38-4.28,8.47-11.76,8.47-15.54,0-1-.6-2.79-1.89-5.78l-12.16-28.3c-1.69-3.79-2.49-4.68-4.78-5.38-0.8-.2-1.1-0.5-1.1-0.9,0-.6.7-1.1,1.69-1.1,0.3,0,1.3.1,2.29,0.2,0.8,0.1,2.19.1,4.38,0.1,3.19,0,5.88,0,6.88-.1a15.71,15.71,0,0,1,1.89-.1,1,1,0,0,1,1.2,1c0,0.7-.6.9-2.59,1.3-2.19.3-2.89,0.8-2.89,2.29a16.19,16.19,0,0,0,1.49,5.48l9.57,22.62Z"/><path class="cls-6" d="M461.76,73.31c3.09,0.1,3.39-.2,3.29-3.49V54.58c0.2-6.18-1.4-8.77-6.08-10-1-.2-1.39-0.5-1.39-1.1a1.05,1.05,0,0,1,1.2-.9,26.18,26.18,0,0,1,3.29.3c1,0.1,5.48.3,6.68,0.3,2.09,0,6.78-.2,7.47-0.3s1.5-.2,1.79-0.2a1.05,1.05,0,0,1,1.2.9c0,0.7-.1.8-3.09,1.39-2.59.9-3.79,3.69-3.59,8.27V98.62c-0.2,6.48,1.59,9,7,9.67,1.1,0.1,1.59.4,1.59,1a1.37,1.37,0,0,1-1.5,1.1c-0.4,0-1.29-.1-2.39-0.2s-2-.2-8.77-0.3L465,110c-1,.1-2.09.1-2.29,0.1l-3,.3h-0.3q-1.2,0-1.2-.9c0-.7.4-1,1.59-1.2,4.28-1,5.18-2.79,5.18-10.26V80.18c0-3-.1-3.09-3.39-3.09h-28.5c-3.79,0-4.08.2-4.18,3.39V96.33c-0.2,8.47,1.4,11.06,7.47,11.66,1.2,0.2,1.89.6,1.89,1.2a1.26,1.26,0,0,1-1.39,1.1c-0.5,0-1.4-.1-2.39-0.2-0.6-.1-6.68-0.3-9.86-0.3a59,59,0,0,0-6.28.3c-1.4.1-2.69,0.2-3.09,0.2q-1.2,0-1.2-.9c0-.9.2-1,3.69-1.79,2.89-.9,3.79-4.09,3.69-12.85V55.07c0.3-7.27-1.59-10.06-7.37-10.66-0.9-.2-1.4-0.5-1.4-1.1a1.1,1.1,0,0,1,1.3-1,21.52,21.52,0,0,1,2.89.3c0.6,0.1,8.07.5,9,.5a62.55,62.55,0,0,0,6.38-.4c0.9-.1,1.59-0.2,2.09-0.2a1.27,1.27,0,0,1,1.4,1c0,0.7-.2.8-3.09,1.59-3,1.39-3.89,3.29-3.69,8.37V69.42c-0.1,3.69.2,3.89,4.18,3.89h28.6Z"/><path class="cls-6" d="M500.12,101.71c-0.1,5.08.7,5.88,6.18,6.38,1,0.2,1.69.6,1.69,1.2a1.1,1.1,0,0,1-1.3.9c-0.6,0-1.69-.1-3.19-0.2-0.5-.1-5.38-0.2-6.48-0.2-1.49,0-3.79.2-5.08,0.3-0.8.1-1.4,0.2-1.79,0.2a1.16,1.16,0,0,1-1.29-.9c0-.6.3-0.8,1.79-1.3,2.39-1.2,2.79-2.19,2.79-6.08V80.78c0.1-5.28-.7-6.38-4.58-6.38-0.9,0-1.3-.3-1.4-0.7-0.1-.6.4-0.9,2.49-1.59a75.75,75.75,0,0,0,7-3.09,9.69,9.69,0,0,1,2.59-1.2c0.6,0,.6,0,0.6,9.07v24.81Zm-0.5-50.92c1.59,2.49,1.59,2.49,1.59,3.09,0,1.59-3.09,5.08-4.38,5.08s-4.18-3.49-4.18-5.08c0-.5.5-1.3,1.89-3.09,1.2-1.59,1.79-2,2.69-2S498.62,49.29,499.62,50.79Z"/><path class="cls-6" d="M512.47,101.21a21.75,21.75,0,0,1-.1-2.39c0-2.39.3-3.19,1.2-3.19,0.6,0,.9.4,1.1,1.49,1.59,7.37,5.58,11.36,11.16,11.36,4.68,0,8.07-3.09,8.07-7.47,0-2.59-.7-4.19-2.49-5.58-1.4-1.1-1.4-1.1-7.27-3.69-7.87-3.49-10.76-6.58-10.76-11.86,0-6.18,5.78-11.06,13.15-11.06a23.47,23.47,0,0,1,9.17,2,1,1,0,0,1,.8,1.2v1.69c0.1,0.3.1,1.1,0.3,2.49a10.25,10.25,0,0,1,.1,1.69c0,1.4-.4,2.09-1.1,2.09-0.4,0-.7-0.4-1-1.29-2-5-5.28-7.47-10.06-7.47-3.89,0-6.68,2.49-6.68,5.88,0,3.59,2,5.18,10.16,8.37s10.86,6.18,10.86,12.16A13.68,13.68,0,0,1,525.43,111a22.54,22.54,0,0,1-9-2.29,5.91,5.91,0,0,0-1.39-.5l-1.3-.2c-1.2-.2-1.29-0.3-1.2-3.19Z"/><path class="cls-6" d="M556.21,99.21c0,3.69.3,5.08,1.39,6.18a7.85,7.85,0,0,0,5.58,2.09c2.59,0,3.59-.3,7.57-2.29a0.6,0.6,0,0,1,.4-0.1,0.47,0.47,0,0,1,.5.5c0,2.19-6.48,5.38-11.06,5.38-7.07,0-11.16-4.28-11.16-11.66V74.7h-4.38c-0.8,0-1.2-.2-1.2-0.8,0-.4.3-0.9,1.29-1.69a52.1,52.1,0,0,0,8.67-9.67c1.1-1.69,1.49-2.09,1.89-2.09s0.7,0.5.7,1.3l-0.2,8.37h10.36a5.23,5.23,0,0,0,3.29-.8,2.23,2.23,0,0,1,1.1-.6,0.5,0.5,0,0,1,.5.6c0,0.2,0,.2-1.59,4-0.5,1.3-.8,1.4-3.59,1.4H556.21V99.21Z"/><path class="cls-6" d="M616.3,89.95c0,12-9.37,21-21.72,21S573.35,102.3,573.35,90c0-6.18,3.29-13.05,8-16.64A23.19,23.19,0,0,1,595,68.82,21.18,21.18,0,0,1,616.3,89.95Zm-36.07-2.89c0,12.46,7,21.82,16.34,21.82,7.87,0,12.85-6.38,12.85-16.54,0-12.65-6.48-21.62-15.64-21.62C585.61,70.72,580.23,77.29,580.23,87.06Z"/><path class="cls-6" d="M633,77.69c3.69-5.88,7.27-8.87,10.46-8.87,1.49,0,2.19.4,5.18,3,1.1,0.9,1.3,1.2,1.3,1.79,0,1.1-3,4.68-3.89,4.68-0.3,0-.7-0.2-2.09-1.2a6.91,6.91,0,0,0-4-1.4,7,7,0,0,0-7,7.37v17.34c0,6.28,1.39,7.77,7.37,8,1,0.1,1.59.5,1.59,1a1.2,1.2,0,0,1-1.39,1c-0.2,0-1.1-.1-2.29-0.2-0.6-.1-3.59-0.2-6.38-0.2a61.13,61.13,0,0,0-7.37.3c-0.9.1-1.6,0.2-1.79,0.2a1.15,1.15,0,0,1-1.29-1c0-.6.4-0.9,1.49-1.1,3-.8,3.39-1.49,3.39-7.37V81.78c0-3.59-.1-4.18-0.8-5.28a6.52,6.52,0,0,0-5-2l-1.29.1a1,1,0,0,1-1.1-.8c0-.7.5-1.1,1.79-1.2a31.8,31.8,0,0,0,10.86-4.28,3.36,3.36,0,0,1,1.2-.4c0.8,0,1,.5,1,2.59v7.17Z"/><path class="cls-6" d="M683.94,82.67a16.55,16.55,0,0,0,1.2-5.68,4.92,4.92,0,0,0-1.5-3.79c-0.7-.6-1.29-0.8-3.69-1.3-0.9-.2-1.2-0.5-1.2-1.1a0.77,0.77,0,0,1,.9-0.8l2,0.1a35.53,35.53,0,0,0,3.79.1c2.79,0,4.88,0,5.78-.1a20.26,20.26,0,0,1,2.19-.1,0.8,0.8,0,0,1,1,.8,1.22,1.22,0,0,1-1,1.1c-2.69,1-3,1.4-4.38,5l-17.24,48.43c-0.7,2.29-.8,2.39-1.2,2.89a3.86,3.86,0,0,1-1.1.3H666.9c-3.19,0-3.29-.1-3.29-0.7a1.4,1.4,0,0,1,.6-0.9c4.38-4.28,8.47-11.76,8.47-15.54,0-1-.6-2.79-1.89-5.78l-12.16-28.3c-1.69-3.79-2.49-4.68-4.78-5.38-0.8-.2-1.1-0.5-1.1-0.9,0-.6.7-1.1,1.69-1.1,0.3,0,1.29.1,2.29,0.2,0.8,0.1,2.19.1,4.38,0.1,3.19,0,5.88,0,6.88-.1a15.7,15.7,0,0,1,1.89-.1,1,1,0,0,1,1.2,1c0,0.7-.6.9-2.59,1.3-2.19.3-2.89,0.8-2.89,2.29a16.18,16.18,0,0,0,1.49,5.48l9.56,22.62Z"/><path class="cls-6" d="M81.11,6.94c-1.91-.07-2.18.27-2.25,2.38V41.46c-0.14,4.29.89,5.72,4.43,6.4,0.82,0.2,1.16.41,1.16,0.75a0.84,0.84,0,0,1-.89.75,11.9,11.9,0,0,1-1.7-.2c-0.68-.07-1.16-0.07-5.51-0.14-3.95.07-4,.07-4.77,0.14-1.16.14-2,.2-2.25,0.2a0.85,0.85,0,0,1-1-.68c0-.41.34-0.61,1.09-0.75,3.68-.48,4.49-1.63,4.36-6.33V9.67c-0.07-2.59-.07-2.66-2-2.72H62.94c-4,.27-4.77,1-5.72,5.11-0.2.88-.48,1.29-0.89,1.29a0.83,0.83,0,0,1-.61-1,22.8,22.8,0,0,1,.41-2.52c0.2-1.43.48-3.34,0.48-3.95-0.07-1.91.27-2.38,1.77-2.45H94.12c2.52,0,2.59.07,2.59,3.4a10,10,0,0,0,.14,2.18,11.93,11.93,0,0,1,.2,1.7,0.93,0.93,0,0,1-.75,1c-0.34,0-.54-0.34-0.75-1-0.48-3.06-1.63-3.88-5.11-3.81H81.11Z"/><path class="cls-6" d="M107.37,26.08c2.86-3.4,6-5.11,9.46-5.11a10.15,10.15,0,0,1,8.58,4.7,12,12,0,0,1,1.77,6.81V43c0,3.47.54,4.09,4.36,4.83,0.61,0.07.88,0.27,0.88,0.68s-0.27.61-1,.61A15.63,15.63,0,0,1,129.9,49c-1.63-.07-3.27-0.14-4.22-0.14s-3.88.14-4.29,0.2a7.54,7.54,0,0,1-1.09.07,0.84,0.84,0,0,1-.89-0.61c0-.34.07-0.41,1.63-1,1.36-.54,1.57-1,1.57-3.81v-11c0-5.45-3.06-9-7.83-9-3.88,0-7.42,2.66-7.42,5.51V42.08c0.07,4.56.61,5.31,4.49,5.79,0.82,0.07,1.16.34,1.16,0.82a0.58,0.58,0,0,1-.68.54c-0.34,0-1.09-.07-1.91-0.14C109.82,49,107.5,49,105.6,49c-1.16,0-2.59.07-4,.2a14.83,14.83,0,0,1-1.63.07,0.62,0.62,0,0,1-.75-0.61,0.84,0.84,0,0,1,.75-0.75c2.66-.75,2.93-1.36,2.86-5.92V8.24a5.61,5.61,0,0,0-.34-2.66A2.28,2.28,0,0,0,101,4.29l-2.31.14a0.58,0.58,0,0,1-.48-0.54,0.74,0.74,0,0,1,.75-0.68,41,41,0,0,0,7.22-3,1.78,1.78,0,0,1,.75-0.2,0.58,0.58,0,0,1,.54.68l-0.07,2.59V26.08Z"/><path class="cls-6" d="M138.46,33.16V33.7c0.07,7,5,12.8,10.89,12.8,2.66,0,4.49-.75,7.83-3.2a0.82,0.82,0,0,1,.54-0.27,0.53,0.53,0,0,1,.41.54c0,0.68-.82,1.7-2.66,3.06a14.35,14.35,0,0,1-8.85,3.13c-7.08,0-12.73-6.26-12.73-14.16S139.68,21,146.42,21a11.38,11.38,0,0,1,9.05,4.63c1.16,1.63,2.45,4.7,2.45,5.79,0,0.82-.61,1.09-2.25,1.09s-1.57,0-4.7-.14H138.46v0.82Zm11.37-2.59c2.18,0,2.66-.2,2.66-1,0-3.54-3.61-7.08-7.15-7.08s-6.2,3.13-6.74,8.1h11.23Z"/><path class="cls-6" d="M509.78,154.7c0.07-4-.48-4.69-4.42-5-0.88-.14-1.29-0.41-1.29-0.88s0.34-.61,1.15-0.61l3.47,0.07c2.65,0,5.78,0,6.25-.07l2.58-.14q0.82,0,.82.61c0,0.41-.27.68-1,0.82-2,.54-2.51,1.63-2.45,4.76v10.6l0.07,1.09c0,0.48-.27.61-1.16,0.75s-1.43.41-5,2.45a30.27,30.27,0,0,1-13.93,3.74c-5.57,0-11.55-2-15.36-5.37-4.62-3.94-7.34-10.4-7.34-17.33,0-14.07,10.12-24.4,23.85-24.4,5,0,11.76,1.77,15.15,4a1.1,1.1,0,0,0,.61.27c0.2,0,.27-0.07,1.36-0.88a0.9,0.9,0,0,1,.48-0.2q0.61,0,.61,1.43a52,52,0,0,0,1,8,9.32,9.32,0,0,1,.14,1.09,0.75,0.75,0,0,1-.75.75,0.68,0.68,0,0,1-.61-0.54,22.06,22.06,0,0,0-19.5-12c-9.85,0-16.85,8.49-16.85,20.45,0,12.84,8.22,22.7,19,22.7a15.31,15.31,0,0,0,12.1-5.44c0.75-1,1-2.17,1-4.55V154.7Z"/><path class="cls-6" d="M552,170.33a0.61,0.61,0,0,1,.75.54c0,0.68,0,.68-4,0.88A16.13,16.13,0,0,0,546,172a6.73,6.73,0,0,1-1.29.2c-0.82,0-.88-0.2-1-4.35a13.93,13.93,0,0,1-2.72,2.85,12.71,12.71,0,0,1-6.73,2.11,11,11,0,0,1-7.13-2.72c-1.84-1.77-2.72-4.48-2.72-8.15l0.07-2.17v-11c-0.2-2.38-.88-3.13-3.26-3.13q-0.82-.1-0.82-0.61c0-.61.27-0.68,2-0.82a26.8,26.8,0,0,0,5-.54,4.44,4.44,0,0,1,.75-0.14c0.75,0,.88.27,0.88,2.11l-0.14,14.81v1.09c0,5.5,2.85,8.9,7.41,8.9A8.08,8.08,0,0,0,543,167c0.61-1,.68-1.36.68-3.33L543.6,149c0.07-2.51-.54-3.19-3-3.26-0.75,0-1.09-.2-1.09-0.68s0.2-.75,2.31-0.82l2.31-.14a9.71,9.71,0,0,0,2.58-.54,6.55,6.55,0,0,1,.82-0.14c0.54,0,.68.27,0.68,1.63v20.39c0,4.28.34,5,2.79,5a1.68,1.68,0,0,0,.54-0.07H552Z"/><path class="cls-6" d="M565.23,166.52c-0.07,3.47.48,4,4.21,4.35a1.16,1.16,0,0,1,1.15.82,0.75,0.75,0,0,1-.88.61c-0.41,0-1.15-.07-2.18-0.14-0.34-.07-3.67-0.14-4.42-0.14-1,0-2.58.14-3.46,0.2-0.54.07-1,.14-1.22,0.14a0.79,0.79,0,0,1-.88-0.61c0-.41.2-0.54,1.22-0.88,1.63-.82,1.9-1.49,1.9-4.15V152.25c0.07-3.6-.48-4.35-3.13-4.35a0.83,0.83,0,0,1-1-.48c-0.07-.41.27-0.61,1.7-1.09a51.58,51.58,0,0,0,4.76-2.11,6.61,6.61,0,0,1,1.77-.82c0.41,0,.41,0,0.41,6.18v16.92Zm-0.34-34.73c1.09,1.7,1.09,1.7,1.09,2.11,0,1.09-2.11,3.47-3,3.47s-2.85-2.38-2.85-3.47c0-.34.34-0.88,1.29-2.11s1.22-1.36,1.83-1.36S564.21,130.78,564.89,131.8Z"/><path class="cls-6" d="M595.15,167.95a44.73,44.73,0,0,1-3.6,2.85,13.18,13.18,0,0,1-6.66,2c-6.73,0-11.82-5.91-11.82-13.79,0-8.29,6.25-15,14-15a14.65,14.65,0,0,1,8.09,2.38V133.36c-0.07-5-1-6.18-4.55-6q-0.82,0-.82-0.61c0-.41.27-0.68,1-0.75a21.39,21.39,0,0,0,7.82-3.06,1.31,1.31,0,0,1,.68-0.2c0.41,0,.41.07,0.48,1.29v41.45c0,2.58,0,2.58.27,3.19a2.66,2.66,0,0,0,2.58,1.29,7.51,7.51,0,0,0,1.09-.07H604a0.52,0.52,0,0,1,.61.54c0,0.54-.41.82-1.22,0.88-3.12.34-6,.88-6.46,1.22a2.91,2.91,0,0,1-1,.34c-0.54,0-.75-0.48-0.75-1.63v-3.26Zm0-14.95c0-2.38-.34-3.33-1.49-4.49a11.84,11.84,0,0,0-7.88-3.13c-5.23,0-8.83,4.48-8.83,11,0,7.34,5,13.52,10.94,13.52a9.18,9.18,0,0,0,5.78-2.17,4.38,4.38,0,0,0,1.49-3.81V153Z"/><path class="cls-6" d="M611.09,156.26v0.54c0.07,7,5,12.78,10.87,12.78,2.65,0,4.48-.75,7.82-3.19a0.81,0.81,0,0,1,.54-0.27,0.53,0.53,0,0,1,.41.54c0,0.68-.82,1.7-2.65,3.06a14.32,14.32,0,0,1-8.83,3.13c-7.07,0-12.71-6.25-12.71-14.13s5.78-14.61,12.5-14.61a11.36,11.36,0,0,1,9,4.62c1.16,1.63,2.45,4.69,2.45,5.78,0,0.82-.61,1.09-2.24,1.09s-1.56,0-4.69-.14h-12.5v0.82Zm11.35-2.58c2.17,0,2.65-.2,2.65-1,0-3.53-3.6-7.07-7.14-7.07s-6.18,3.13-6.73,8.09h11.21Z"/><path class="cls-7" d="M402.49,78.58a70.54,70.54,0,1,0-24.74,53.6l4,4-2.44,2.44,81.56,81.56,12.73-12.73L392,125.91l-2.44,2.44-4-4A70.2,70.2,0,0,0,402.49,78.58Zm-129,0a58.5,58.5,0,1,1,58.5,58.5A58.12,58.12,0,0,1,273.49,78.58Z"/></svg>