<svg id="Layer_1" data-name="Layer 1" xmlns="http://www.w3.org/2000/svg" viewBox="0 0 128 128"><defs><style>.cls-1{fill:#e71d36;}.cls-2{fill:#fff;}</style></defs><title>Untitled-2</title><circle class="cls-1" cx="64" cy="64" r="64"/><path class="cls-2" d="M86.43,62.83a3.33,3.33,0,0,0-1.23.24L69.9,47.77l1.37-1.37a4.49,4.49,0,0,0,0-6.34l-4.88-4.88a4.48,4.48,0,0,0-6.34,0l-6.6,6.6a19.27,19.27,0,0,0-14.87.39L45.42,49l-0.19.25a8.79,8.79,0,0,0,.72,11.56,8.68,8.68,0,0,0,6.18,2.56,8.85,8.85,0,0,0,5.39-1.84l0.25-.19,6.2,6.2a19.27,19.27,0,0,0,.57-14.4l3.66-3.66L83.41,64.72a3.27,3.27,0,0,0-.12,2.71L66.46,84.26a1.18,1.18,0,0,0-.15.22,21,21,0,0,0-19.68,3.67H42.46a2.91,2.91,0,1,0,0,5.81H76.4a2.91,2.91,0,0,0,0-5.81H73.15a21.56,21.56,0,0,0-4.4-2.73L84.94,69.22a3.34,3.34,0,0,0,1.48.36A3.38,3.38,0,0,0,86.43,62.83Zm-34.3-1.9a6.29,6.29,0,0,1-4.95-10.15l4.59,4.59L56,59.6A6.34,6.34,0,0,1,52.13,60.92Zm10.66-9.52-1.1,1.1L62.21,54a16.94,16.94,0,0,1,.65,9l-3.13-3.13-2-2L43.16,43.26a16.87,16.87,0,0,1,9.4.81l1.5,0.58,1.13-1.14,6.6-6.6a2,2,0,0,1,2.86,0l4.88,4.88a2,2,0,0,1,0,2.86Zm9.5,39.2H76.4a0.44,0.44,0,0,1,0,.89H42.46a0.44,0.44,0,1,1,0-.89h5l0.67-.54a18.63,18.63,0,0,1,23.44,0Z" transform="translate(-0.19 0.09)"/></svg>