<svg id="Layer_1" data-name="Layer 1" xmlns="http://www.w3.org/2000/svg" viewBox="0 0 128 128"><defs><style>.cls-1{fill:#011627;}.cls-2{fill:#fff;}</style></defs><title>Untitled-2</title><circle class="cls-1" cx="64" cy="64" r="64"/><path class="cls-2" d="M63.82,92.77H63.68A5.27,5.27,0,0,1,60,90.9C51.21,80.32,41.78,68,41.78,55.51s9.86-22.83,22-22.83,22,10.24,22,22.83S76.29,80.32,67.46,90.9h0A5.29,5.29,0,0,1,63.82,92.77ZM63.75,35C52.91,35,44.1,44.2,44.1,55.51c0,11.7,9.15,23.64,17.72,33.91a3,3,0,0,0,1.86,1h0.13a3,3,0,0,0,1.86-1C74.25,79.15,83.4,67.22,83.4,55.51,83.4,44.2,74.59,35,63.75,35Zm0,33.6A14.27,14.27,0,1,1,78,54.32,14.29,14.29,0,0,1,63.75,68.6Zm0-26.23a12,12,0,1,0,12,12A12,12,0,0,0,63.75,42.37Z" transform="translate(0.25)"/></svg>