<svg id="Layer_1" data-name="Layer 1" xmlns="http://www.w3.org/2000/svg" viewBox="0 0 128 128"><defs><style>.cls-1{fill:#3cbdb2;}.cls-2{fill:#fff;}</style></defs><title>Untitled-2</title><circle class="cls-1" cx="64" cy="64" r="64"/><path class="cls-2" d="M104.12,49.69l0,0L64.36,36.43a1.19,1.19,0,0,0-.73,0L23.92,49.67a1.15,1.15,0,0,0,0,2.18L36.37,56V68.41a1.16,1.16,0,0,0,.34.82c0.37,0.37,9.36,9.16,27.29,9.16A46.26,46.26,0,0,0,82.1,74.9a1.15,1.15,0,1,0-.9-2.12A43.93,43.93,0,0,1,64,76.08a43.3,43.3,0,0,1-19.15-4.19,30.25,30.25,0,0,1-5.79-3.66l-0.38-.32V56.77l25,8.32a1.17,1.17,0,0,0,.73,0l25-8.32v6.14l-0.7.25a5.56,5.56,0,0,0-.4,10.33L89,73.86,84.95,90.19a1.15,1.15,0,0,0,1.12,1.43h8.82A1.15,1.15,0,0,0,96,90.19L91.92,73.86l0.81-.36a5.56,5.56,0,0,0-.4-10.33l-0.7-.25V56l12.45-4.15A1.15,1.15,0,0,0,104.12,49.69ZM93.41,89.32H87.54l2.93-11.74Zm0.32-20.91a3.26,3.26,0,1,1-3.26-3.26A3.26,3.26,0,0,1,93.73,68.41ZM90.84,53.83L90.62,54l-0.5-.08L64.19,49.62a1.15,1.15,0,0,0-.38,2.27l21.9,3.65L64,62.78l-36.07-12L64,38.74l36.07,12Z" transform="translate(0)"/></svg>